<svg xmlns="http://www.w3.org/2000/svg" xmlns:xlink="http://www.w3.org/1999/xlink" width="370" height="370"><circle fill="#828E9E" cx="194.241" cy="184.733" r="150"/><polygon opacity=".15" fill="#2D333B" enable-background="new" points="325,286.675 259.322,276.675 193.236,286.675 128.326,276.675 63,286.675 63,243 325,243"/><polygon fill="#7EC135" points="265.624,257.482 318.77,280.111 318.77,102.876 261.616,78.538 198.254,105.525 194.24,107.233 190.229,105.525 127.12,78.538 70.23,102.876 70.23,280.111 123.111,257.482 126.997,255.775 130.944,257.482 194.265,284.467 257.602,257.482 261.613,255.775"/><defs><polygon id="a" points="260.099,264.99 194.24,293.042 128.381,264.99 62.522,293.042 62.522,98.018 128.381,69.964 194.24,98.018 260.099,69.964 325.958,98.018 325.958,293.041"/></defs><clipPath id="b"><use xlink:href="#a" overflow="visible"/></clipPath><g clip-path="url(#b)"><g opacity=".1"><path d="M275.397 265.293c-1.988 0-3.767-2.213-4.879-6.07-.432-1.5-.882-3.091-1.223-4.599-5.35-23.657-14.56-44.638-28.986-66.029-1.527-2.266-3.27-4.29-4.954-6.248-2.183-2.536-4.439-5.158-6.359-8.417-.279-.474-.571-.936-.862-1.396-1.771-2.805-3.604-5.705-2.299-10.91 1.323-5.278 4.354-6.179 6.789-6.903 4.869-1.448 9.01-4.558 12.658-9.506l7.293-13.077.064-.091c1.368-1.52 2.755-2.291 4.124-2.291 2.044 0 3.903 1.672 5.524 4.97 2.135 4.342 4.869 10.134 7.084 16.438 6.469 18.424 15.056 25.557 26.477 21.981l.154-.049c.514-.163 1.096-.347 1.696-.347 1.2 0 2.067.723 2.65 2.211l.034.167c.007.235.03.48.053.716.057.589.105 1.098-.072 1.459-9.574 19.427-13.434 43.087-17.166 65.968-.182 1.117-.354 2.24-.526 3.362-.747 4.859-1.519 9.884-3.071 14.19-1.039 2.883-2.532 4.471-4.203 4.471zm-21.976-132.619l-7.3 13.081c-3.815 5.183-8.126 8.412-13.212 9.924-2.306.685-4.92 1.462-6.104 6.188-1.201 4.79.438 7.385 2.174 10.132.296.469.594.939.878 1.422 1.875 3.183 4.102 5.771 6.256 8.273 1.703 1.979 3.465 4.027 5.025 6.341 14.498 21.497 23.755 42.586 29.132 66.367.336 1.481.781 3.057 1.209 4.542.951 3.299 2.452 5.348 3.918 5.348 1.2 0 2.389-1.389 3.262-3.81 1.521-4.215 2.285-9.19 3.024-14.003.173-1.125.346-2.251.528-3.37 3.569-21.885 7.615-46.688 17.256-66.25.05-.125.004-.604-.026-.922-.021-.227-.044-.463-.054-.692-.541-1.326-1.186-1.498-1.688-1.498-.446 0-.928.153-1.395.3l-.157.05c-1.978.62-3.906.934-5.734.934-9.231 0-16.423-7.699-21.984-23.538-2.197-6.253-4.915-12.011-7.037-16.328-.99-2.013-2.597-4.412-4.628-4.412-1.062.003-2.187.648-3.343 1.921zM288.17 165.193c-2.921 0-5.532-1.863-7.907-5.613-6.174-9.75-9.422-22.269-10.53-40.591-.699-11.568-.432-23.281-.172-34.609.252-11.019.513-22.413-.119-33.643-.016-.276.195-.512.471-.527.316-.009.513.196.527.471.635 11.271.373 22.685.12 33.723-.259 11.307-.526 22.999.171 34.525 1.098 18.145 4.298 30.517 10.378 40.116 3.229 5.1 6.737 6.36 11.039 3.969 11.377-6.319 22.575-12.074 34.493-13.072 3.379-.283 6.81-.876 10.129-1.449 1.541-.267 3.083-.533 4.627-.771.269-.04.528.145.57.418s-.145.528-.418.57c-1.537.237-3.073.502-4.609.768-3.34.577-6.793 1.174-10.215 1.46-11.721.982-22.813 6.686-34.091 12.95-1.566.869-3.051 1.305-4.464 1.305zM267.547 315.09c-.274 0-.498-.222-.5-.496-.174-22.63-2.46-44.88-6.793-66.133-2.566-12.59-7.104-22.871-13.128-34.436-17.469-33.528-38.448-50.527-62.354-50.527h-.197c-.275 0-.499-.223-.5-.498-.001-.276.222-.501.498-.502h.2c24.31 0 45.584 17.178 63.24 51.064 5.246 10.072 10.479 21.246 13.222 34.699 4.346 21.315 6.638 43.631 6.812 66.324.002.276-.22.502-.496.504l-.004.001zM277.44 314.797c-.27 0-.492-.215-.5-.485-.045-1.582-.104-3.164-.162-4.747-.132-3.586-.27-7.294-.243-10.937.035-4.982.299-10.596 3.004-14.144 5.191-6.812 5.96-16.484 6.301-25.808 1.055-28.806 7.068-53.508 17.874-73.419 9.723-17.913 22.521-27.133 38.038-27.404.256.01.504.215.509.491s-.215.504-.491.509c-15.131.264-27.639 9.309-37.177 26.881-10.731 19.774-16.704 44.328-17.753 72.979-.348 9.483-1.136 19.332-6.506 26.376-2.398 3.146-2.763 8.37-2.799 13.546-.025 3.619.11 7.316.243 10.892.058 1.586.116 3.171.162 4.755.008.276-.21.507-.485.515h-.015zM273.433 232.991c-.348 0-.711-.062-1.081-.185-.126-.042-.23-.133-.29-.252-2.203-4.42-4.314-9.075-6.356-13.578-5.53-12.19-11.248-24.797-19.216-33.625-1.788-1.982-4.121-5.11-3.735-9.374.469-5.183 3.413-6.787 4.656-7.236 2.421-.874 4.635-2.826 6.403-5.646 3.401-5.424 5.116-8.032 6.923-8.032 2.005 0 3.414 3.123 6.502 9.965l.389.859c.406.9.798 1.82 1.184 2.745 2.556 6.129 6.033 9.541 10.944 10.737.344.084.844.062 1.35.023.288-.022.582-.043.877-.043 1.32 0 2.826.39 3.978 3.285.043.107.047.227.012.337-3.789 11.864-6.407 25.55-8.004 41.837-.302 3.056-1.29 8.183-4.536 8.183zm-.574-1.077c.199.052.392.077.573.077 2.621 0 3.371-5.572 3.538-7.28 1.597-16.279 4.211-29.979 7.992-41.871-.958-2.295-2.039-2.491-2.981-2.491-.271 0-.538.021-.802.041-.613.046-1.207.062-1.661-.049-5.247-1.278-8.942-4.875-11.631-11.323-.383-.916-.771-1.827-1.173-2.718l-.388-.86c-2.64-5.847-4.232-9.376-5.591-9.376-1.27 0-3.136 2.874-6.075 7.563-1.889 3.012-4.278 5.105-6.911 6.055-1.063.384-3.583 1.775-4 6.386-.351 3.874 1.819 6.771 3.481 8.614 8.072 8.943 13.822 21.621 19.384 33.882 2.01 4.428 4.086 9.004 6.245 13.35zM184.287 153.36c-.272 0-.495-.218-.5-.492-.004-.276.215-.503.492-.508 17.302-.293 31.158-2.961 43.606-8.397 14.708-6.422 24.146-22.467 29.703-50.493 2.786-14.05 2.366-28.49 1.96-42.455-.008-.276.209-.506.485-.515.279-.006.507.209.515.485.407 14.021.829 28.518-1.979 42.678-5.626 28.376-15.249 44.65-30.283 51.215-12.573 5.491-26.552 8.186-43.99 8.481l-.009.001zM295.825 146.576c-.439 0-.875-.052-1.306-.157-2.212-.537-4.217-2.435-5.958-5.643-4.469-8.232-7.341-16.1-9.038-24.762-3.235-16.499-3.878-33.675-4.499-50.285-.187-4.967-.379-10.102-.637-15.141-.015-.275.197-.511.474-.525.3-.023.511.199.524.474.259 5.045.451 10.185.638 15.154.62 16.572 1.262 33.708 4.48 50.13 1.678 8.56 4.518 16.337 8.937 24.477 1.601 2.949 3.389 4.682 5.315 5.149 1.429.346 2.949-.019 4.518-1.086 11.521-7.842 24.379-11.924 41.688-13.234.274-.02.516.186.537.461s-.186.515-.461.536c-17.126 1.296-29.833 5.325-41.202 13.063-1.356.925-2.7 1.389-4.01 1.389zM257.654 315.382c-.271 0-.493-.216-.5-.487l-.091-3.742c-.39-16.467-.792-33.493-6.503-47.299-2.499-6.042-4.872-12.427-7.167-18.602-7.475-20.114-15.204-40.914-28.595-53.422-8.394-7.84-17.85-11.572-29.759-11.742-.276-.004-.497-.231-.493-.507s.226-.481.507-.493c12.173.174 21.841 3.991 30.427 12.012 13.563 12.669 21.334 33.581 28.85 53.804 2.292 6.167 4.661 12.543 7.153 18.567 5.782 13.979 6.188 31.1 6.579 47.658l.091 3.74c.007.276-.211.506-.487.513h-.012zM282.387 314.651c-.275 0-.499-.223-.5-.499-.027-12.219 2.757-23.217 8.511-33.622 3.442-6.227 4.578-13.738 5.224-23.102 1.067-15.48 3.138-35.374 9.736-51.933 8.071-20.25 20.474-30.698 36.864-31.053.314.001.505.213.511.489.006.276-.213.504-.489.511-15.951.346-28.049 10.582-35.956 30.424-6.548 16.43-8.606 36.222-9.668 51.63-.655 9.496-1.815 17.13-5.347 23.518-5.669 10.252-8.412 21.091-8.386 33.136.001.277-.223.5-.5.501zM247.762 315.674c-.271 0-.493-.215-.5-.487-.297-11.333-1.124-26.164-4.914-40.371-2.111-7.914-5.562-14.646-9.979-19.469-5.024-5.486-8.557-12.864-11.116-23.22-6.22-25.165-17.901-36.761-35.696-35.45-.275.017-.515-.188-.535-.462-.021-.275.187-.516.462-.536 18.374-1.333 30.385 10.493 36.74 36.208 2.518 10.187 5.976 17.427 10.884 22.784 4.524 4.941 8.055 11.817 10.208 19.887 3.816 14.308 4.648 29.215 4.947 40.604.007.275-.211.505-.487.513l-.014-.001zM183.815 136.771c-.274 0-.497-.22-.5-.495-.003-.276.218-.502.495-.505 13.872-.15 24.479-1.558 34.396-4.563 7.971-2.417 16.548-11.939 22.942-25.473 6.838-14.471 10.032-31.276 8.766-46.108-.161-1.883-.187-3.815-.211-5.684-.011-.879-.022-1.758-.048-2.635-.008-.276.21-.506.485-.514.267.003.507.209.515.486.025.881.036 1.766.048 2.65.024 1.851.05 3.765.207 5.612 1.282 15.002-1.946 31.995-8.857 46.621-6.514 13.784-15.319 23.505-23.556 26.002-10.011 3.035-20.705 4.455-34.676 4.606h-.006zM287.308 313.583l-.083-.007c-.272-.045-.457-.303-.411-.575 1.089-6.536 3.205-12.518 6.66-18.824 1.206-2.201 2.388-4.514 3.531-6.751 1.558-3.046 3.168-6.195 4.865-9.12 3.611-6.223 3.463-13.947 3.319-21.418-.057-2.964-.115-6.028.061-8.963 2.026-33.783 11.176-50.959 29.666-55.691 1.761-.451 3.56-.669 5.3-.88.806-.098 1.611-.195 2.415-.315.27-.036.527.146.568.42s-.147.527-.42.568c-.812.122-1.628.221-2.443.319-1.708.208-3.475.422-5.172.856-18.002 4.607-26.92 21.503-28.916 54.783-.174 2.895-.115 5.938-.059 8.883.146 7.608.298 15.476-3.454 21.939-1.685 2.901-3.289 6.039-4.84 9.074-1.146 2.242-2.332 4.562-3.545 6.775-3.399 6.205-5.48 12.086-6.551 18.508-.04.246-.252.419-.491.419zM303.206 127.965c-.387 0-.764-.047-1.133-.141-2.251-.569-4.213-2.925-6.363-7.64-9.816-21.523-15.327-44.989-16.377-69.747-.012-.276.203-.509.479-.521.302-.018.51.203.521.479 1.044 24.628 6.523 47.969 16.287 69.374 2.013 4.413 3.77 6.598 5.698 7.085 1.514.383 3.339-.279 5.73-2.089 9.991-7.56 20.895-8.855 31.439-10.109l.98-.117c.267-.031.522.162.556.438.033.274-.163.523-.437.556l-.981.117c-10.412 1.238-21.18 2.518-30.954 9.914-2.153 1.629-3.884 2.401-5.445 2.401zM297.775 314.196l-.129-.017c-.267-.071-.426-.346-.354-.612 1.55-5.812 3.776-10.336 7.686-15.612 7.97-10.761 10.06-27.588 11.518-43.902.177-1.978.317-3.982.458-5.99.502-7.173 1.021-14.59 3.27-20.915 2.771-7.801 5.881-12.029 9.783-13.309 3.601-1.182 7.969.093 13.739 4.007.229.155.288.466.134.694-.155.229-.465.288-.694.134-5.494-3.726-9.581-4.961-12.867-3.885-3.585 1.175-6.493 5.208-9.153 12.692-2.201 6.197-2.716 13.545-3.214 20.65-.141 2.015-.281 4.025-.459 6.011-1.471 16.455-3.586 33.438-11.711 44.408-3.828 5.167-6.007 9.593-7.521 15.274-.062.225-.264.372-.486.372zM338.819 107.258c-10.404 0-21.229-2.382-33.04-7.265-10.429-4.312-15.353-13.718-15.965-30.499-.161-4.442-.118-8.964-.077-13.336.019-2.017.038-4.035.038-6.051 0-.276.224-.5.5-.5s.5.224.5.5c0 2.02-.02 4.04-.038 6.06-.041 4.362-.084 8.872.077 13.291.596 16.336 5.329 25.469 15.348 29.611 12.241 5.061 23.408 7.408 34.119 7.172.258.009.505.213.511.489.006.276-.213.504-.489.511-.493.011-.989.017-1.484.017zM235.121 316.048l-.112-.013c-.27-.062-.438-.331-.375-.6 2.3-9.933.369-18.328-2.609-29.105-1.699-6.146-4.185-11.868-6.999-16.113-2.835-4.276-6.222-8.709-10.485-7.094-9.98 3.769-16.271-7.085-20.138-15.574-1.468-3.224-3.233-5.78-4.939-8.253-1.107-1.604-2.252-3.262-3.302-5.081-.138-.239-.056-.545.184-.684.24-.138.545-.055.684.184 1.029 1.784 2.161 3.426 3.257 5.013 1.731 2.509 3.522 5.103 5.027 8.407 5.879 12.909 11.874 17.692 18.874 15.053 4.952-1.87 8.623 2.878 11.673 7.477 2.871 4.331 5.402 10.155 7.128 16.4 2.921 10.566 4.969 19.455 2.621 29.596-.055.231-.261.387-.489.387zM305.47 313.969c-.105 0-.211-.032-.301-.101-.221-.166-.265-.479-.099-.7 7.16-9.515 11.795-23.07 14.586-42.658.448-3.145.648-6.466.841-9.678.119-1.969.241-4.005.42-5.988 1.318-14.663 4.616-23.338 10.082-26.519 3.437-2 7.808-1.819 12.988.539.251.114.362.411.248.662-.114.252-.409.361-.662.248-4.937-2.245-8.887-2.438-12.071-.585-5.166 3.006-8.302 11.427-9.589 25.744-.178 1.969-.3 3.997-.417 5.958-.195 3.232-.396 6.574-.85 9.759-2.816 19.763-7.512 33.464-14.777 43.119-.098.131-.248.2-.399.2zM183.106 111.887c-.239 0-.45-.171-.492-.415-.047-.272.136-.531.408-.578l1.759-.301c11.527-1.964 22.415-3.82 32.239-14.279 7.501-7.986 13.894-15.808 16.146-30.697.755-4.999 1.231-9.268 1.101-13.854-.008-.276.21-.506.485-.514.288-.012.507.209.515.486.133 4.661-.349 8.98-1.112 14.032-2.294 15.174-8.787 23.122-16.405 31.232-10.054 10.704-21.616 12.674-32.799 14.58l-1.757.301-.088.007zM330.961 101.089c-6.753 0-13.384-1.974-19.721-4.102-14.027-4.71-18.657-20.59-13.763-47.197.051-.272.305-.455.583-.401.271.05.451.311.401.582-4.791 26.042-.385 41.542 13.097 46.068 8.896 2.988 18.372 5.67 27.833 2.866.264-.079.543.073.621.337.078.265-.072.543-.338.622-2.916.865-5.826 1.225-8.713 1.225zM312.064 313.773c-.172 0-.339-.089-.432-.248-.14-.238-.059-.545.18-.684 5.42-3.16 7.056-11.126 8.637-18.831.418-2.034.85-4.138 1.345-6.119 1.243-4.975 1.589-10.509 1.923-15.86.109-1.759.219-3.518.359-5.263 1.105-13.759 3.948-21.831 8.945-25.406 2.953-2.111 6.717-2.607 11.196-1.468.268.067.43.34.361.607-.068.267-.338.431-.607.361-4.234-1.076-7.627-.646-10.368 1.312-4.74 3.391-7.45 11.23-8.531 24.673-.14 1.739-.248 3.492-.357 5.245-.337 5.396-.685 10.977-1.95 16.04-.49 1.961-.92 4.055-1.336 6.078-1.626 7.92-3.307 16.109-9.112 19.493-.08.049-.167.07-.253.07zM242.815 315.82c-.263 0-.483-.204-.499-.47-.939-15.483-4.663-29.97-11.719-45.588-3.522-7.8-8.562-11.607-15.858-11.982-5.18-.266-8.467-6.784-12.272-14.332-4.148-8.228-8.85-17.552-16.911-19.755-.267-.073-.423-.348-.351-.614.073-.267.349-.42.614-.351 8.49 2.32 13.297 11.856 17.54 20.27 3.666 7.27 6.831 13.548 11.431 13.784 7.713.396 13.025 4.39 16.72 12.568 7.106 15.733 10.858 30.331 11.805 45.939.017.275-.193.513-.469.529l-.031.002zM328.179 94.761c-6.078 0-12.015-1.459-17.717-4.364-5.144-2.619-7.94-7.29-8.313-13.882l-.041-.713c-.504-8.893-1.026-18.088 1.988-26.289.097-.26.384-.391.643-.297.259.095.392.383.297.642-2.943 8.006-2.428 17.096-1.929 25.887l.04.713c.356 6.299 2.897 10.566 7.769 13.048 7.469 3.804 15.344 5.066 23.415 3.75.651-.106 1.312-.173 1.974-.24 1.146-.116 2.331-.236 3.448-.577.267-.083.544.069.625.332.08.264-.068.543-.332.624-1.212.371-2.446.495-3.641.616-.643.065-1.282.129-1.914.232-2.119.345-4.224.518-6.312.518zM182.896 104.514c-.229 0-.437-.159-.488-.393-.06-.27.111-.537.381-.596 8.75-1.923 16.71-5.371 24.335-10.542 11.677-7.917 18.405-21.356 20.57-41.088.06-.515.609-.485.845-.475l.165.005c.269.001.507.209.515.485s-.209.506-.485.515h-.092c-2.248 19.811-9.105 33.351-20.957 41.386-7.731 5.243-15.805 8.739-24.681 10.69l-.108.013zM221.932 316.438l-.063-.004c-.274-.034-.468-.284-.434-.559 1.303-10.351 2.151-21.355-2.922-32.113-3.672-7.787-7.495-10.345-12.39-8.288-2.647 1.11-4.9 1.227-6.889.354-2.715-1.19-4.947-4.289-6.823-9.473-1.192-3.293-2.825-7.803-5.494-9.876-.218-.169-.258-.483-.088-.701.17-.22.484-.259.701-.088 2.897 2.25 4.587 6.917 5.82 10.325 1.778 4.912 3.835 7.822 6.285 8.896 1.724.757 3.719.639 6.101-.359 5.432-2.278 9.779.511 13.681 8.784 5.188 11 4.331 22.168 3.01 32.664-.032.253-.247.438-.495.438zM326.174 88.284c-2.866 0-5.754-.442-8.657-1.611l-.822-.325c-3.512-1.373-7.492-2.929-8.449-10.005-1.248-9.229-1.795-19.675 3.609-27.177.161-.224.475-.275.697-.114.225.162.275.474.113.698-5.185 7.198-4.712 16.971-3.43 26.459.879 6.493 4.409 7.873 7.823 9.208l.831.328c7.213 2.903 14.473 1.102 21.49-.64l.189-.047c.269-.066.539.097.605.365s-.097.54-.365.606l-.188.047c-4.4 1.092-8.894 2.208-13.446 2.208zM319.759 313.547c-.1 0-.2-.029-.288-.091-.226-.159-.279-.471-.121-.697 5.658-8.04 6.969-19.44 7.826-30.429l.177-2.335c.676-9.063 1.375-18.435 6.297-24.915 3.375-4.443 6.376-5.046 11.07-2.227.236.143.313.449.171.687-.143.236-.449.311-.687.171-4.239-2.547-6.704-2.047-9.758 1.975-4.743 6.244-5.4 15.056-6.097 24.384l-.178 2.339c-.867 11.126-2.2 22.679-8.004 30.927-.097.137-.251.211-.408.211zM182.962 97.132c-.206 0-.398-.127-.471-.332-.093-.26.042-.546.303-.639 9.573-3.418 18.1-6.932 25.493-15.342 6.508-7.402 10.513-16.802 12.243-28.737.04-.274.305-.469.566-.423.273.04.463.293.424.566-1.76 12.132-5.843 21.701-12.481 29.253-7.553 8.59-16.202 12.158-25.909 15.624l-.168.03zM215.331 316.585l-.054-.004c-.274-.035-.474-.238-.438-.512l.013-.096c1.326-10.295 2.579-20.019-2.386-29.134-2.515-4.62-5.316-6.23-8.323-4.804-2.741 1.305-5.214 1.503-7.35.592-3.043-1.297-5.479-4.811-7.448-10.74-.237-.713-.762-1.211-1.316-1.738-.284-.271-.567-.541-.819-.84-.179-.211-.151-.526.06-.704.21-.177.526-.151.704.06.229.271.486.515.744.759.62.589 1.262 1.198 1.577 2.149 1.874 5.642 4.128 8.957 6.891 10.135 1.888.805 4.023.617 6.528-.574 2.459-1.171 6.126-1.21 9.632 5.228 5.119 9.399 3.787 19.74 2.498 29.74-.033.255-.26.483-.513.483zM228.526 316.242l-.081-.007c-.272-.044-.458-.301-.413-.573 2.859-17.56-1.785-36.641-11.045-45.369-2.404-2.268-4.86-1.9-7.462-1.516-.689.103-1.402.209-2.106.261-5.209.383-9.337-1.029-12.473-9.164-2.029-5.263-4.61-11.099-8.371-14.478-.206-.185-.223-.501-.038-.706.185-.206.502-.222.706-.038 3.919 3.521 6.564 9.488 8.637 14.862 2.924 7.586 6.559 8.891 11.467 8.525.666-.049 1.329-.147 2.031-.252 2.722-.404 5.538-.823 8.295 1.776 9.484 8.94 14.256 28.395 11.346 46.258-.04.247-.252.421-.493.421zM272.503 206.777c-.1 0-.198-.029-.282-.087-5.677-3.88-9.813-10.406-12.646-19.952-.078-.265.072-.543.337-.622.27-.078.544.073.622.337 2.665 8.984 6.486 15.209 11.67 19 1.745-7.09.089-16.148-3.823-20.516-1.972-2.201-3.586-3.156-4.967-2.938-1.287.211-2.457 1.519-3.476 3.887-.109.254-.404.368-.656.262-.254-.109-.371-.403-.262-.657 1.178-2.741 2.562-4.206 4.232-4.479 1.732-.289 3.654.782 5.872 3.257 4.243 4.735 5.975 14.669 3.859 22.143-.044.155-.16.279-.312.334l-.168.031zM326.354 313.352l-.217-.05c-.249-.119-.354-.418-.233-.667 3.813-7.927 4.505-17.704 5.174-27.159.143-2.015.285-4.03.456-6.033.678-7.926 4.047-14.669 8.193-16.397 1.863-.777 3.722-.462 5.369.913.212.177.24.492.063.704-.176.213-.491.24-.704.063-1.361-1.137-2.824-1.39-4.344-.758-3.756 1.566-6.944 8.11-7.582 15.561-.171 1.997-.312 4.008-.455 6.018-.675 9.549-1.373 19.424-5.271 27.522-.084.178-.263.283-.449.283zM182.752 89.759c-.191 0-.374-.11-.457-.295-.113-.252 0-.548.251-.661 9.678-4.337 18.94-9.258 25.883-21.674 1.323-2.365 2.188-5.218 3.025-7.978.726-2.394 1.477-4.869 2.525-7.021.12-.249.423-.349.668-.23.248.121.352.42.23.669-1.014 2.081-1.753 4.517-2.467 6.873-.853 2.81-1.733 5.716-3.109 8.176-7.094 12.683-16.511 17.69-26.347 22.098l-.202.043zM327.216 74.229c-2.4 0-4.303-.794-5.656-2.359-2.313-2.678-2.961-7.538-1.923-14.446.628-4.188 2.33-6.235 4.131-8.403l.198-.239c.176-.212.491-.242.704-.065.212.176.242.491.065.704l-.198.239c-1.71 2.058-3.324 4.001-3.912 7.913-.992 6.606-.423 11.197 1.691 13.644 1.161 1.343 2.822 2.029 4.935 2.013 2.7-.01 5.469-.91 8.146-1.779 1.225-.398 2.491-.81 3.746-1.136.27-.072.541.091.61.358.069.268-.092.541-.358.61-1.226.318-2.479.726-3.689 1.119-2.751.894-5.595 1.818-8.451 1.829l-.039-.002zM322.953 81.001c-3.398 0-6.98-.535-8.718-6.646-1.75-6.154-1.39-13.237 1.041-20.484.478-1.426 1.315-2.483 2.126-3.505.353-.445.717-.905 1.037-1.381.155-.23.468-.289.694-.135.229.154.29.465.136.694-.343.508-.72.984-1.084 1.443-.791.999-1.539 1.942-1.962 3.202-2.366 7.055-2.721 13.934-1.027 19.893 1.714 6.028 5.164 5.967 8.826 5.908l1.349-.02c4.618-.062 9.393-.127 13.896-2.25.248-.12.548-.011.665.239.118.25.011.548-.239.666-4.698 2.216-9.583 2.282-14.308 2.346l-1.346.02-1.086.01zM182.543 82.386c-.184 0-.36-.101-.448-.276-.124-.247-.023-.547.224-.671 9.751-4.876 19.535-11.771 25.04-29.047.084-.262.367-.41.628-.325.264.084.409.365.325.628-5.618 17.629-15.598 24.663-25.545 29.638-.073.036-.149.053-.224.053zM331.851 313.189c-.088 0-.176-.022-.256-.07-.237-.142-.315-.448-.174-.686 2.59-4.342 2.816-10.044 3.035-15.559.099-2.484.201-5.053.517-7.472 1.274-9.736 3.1-14.527 10.028-15.42.269-.039.524.158.56.433.035.273-.158.524-.433.56-5.728.737-7.782 4.003-9.163 14.557-.311 2.375-.412 4.921-.51 7.383-.224 5.639-.455 11.471-3.175 16.03-.093.158-.259.244-.429.244zM202.145 317.022l-.11-.013c-.269-.061-.438-.328-.377-.598.15-.669.296-1.343.44-2.017.32-1.487.651-3.024 1.042-4.492 1.287-4.837-.219-8.917-1.463-11.564-.61-1.298-1.407-2.065-2.368-2.281-1.514-.34-2.959.739-3.368 1.078-1.899 1.566-3.441 2.097-4.71 1.618-1.687-.638-2.768-2.972-3.504-7.568-.043-.272.143-.529.415-.573.266-.04.528.142.573.415.654 4.088 1.593 6.309 2.869 6.791.906.337 2.121-.135 3.72-1.454.497-.411 2.267-1.723 4.224-1.282 1.277.286 2.306 1.239 3.054 2.831 1.312 2.79 2.896 7.095 1.525 12.248-.385 1.444-.713 2.97-1.031 4.444-.146.678-.291 1.354-.443 2.027-.053.232-.259.39-.488.39zM183.342 120.182c-.255 0-.474-.195-.498-.454-.025-.275.177-.519.452-.544 3.082-.284 6.214-.304 9.243-.323 4.888-.031 9.942-.064 14.854-1.215 5.237-1.229 10.276-2.934 14.347-10.22 1.903-3.408 4.418-5.909 6.85-8.328 1.06-1.054 2.155-2.143 3.178-3.288l3.113-5.58c5.361-12.085 5.478-26.307 4.882-38.62-.014-.276.199-.51.475-.524.312-.011.511.2.523.476.602 12.43.48 26.797-4.986 39.114l-3.16 5.668-.063.089c-1.054 1.183-2.173 2.296-3.256 3.373-2.383 2.37-4.847 4.821-6.682 8.106-4.27 7.642-9.527 9.425-14.991 10.707-5.021 1.177-10.133 1.21-15.076 1.242-3.008.019-6.118.039-9.157.319l-.048.002zM332.289 66.048c-.565 0-1.129-.017-1.689-.034l-.842-.023c-1.32-.03-2.53-.777-3.409-2.105-1.601-2.418-1.848-6.294-.601-9.424.645-1.615 1.584-2.89 2.493-4.123.404-.548.809-1.096 1.188-1.674.151-.233.464-.295.691-.145.231.151.296.461.145.692-.388.594-.803 1.157-1.219 1.72-.911 1.236-1.772 2.404-2.368 3.899-1.134 2.845-.926 6.341.505 8.502.49.74 1.338 1.629 2.597 1.657l.851.024c2.876.088 5.593.169 8.105-1.971.209-.178.526-.154.705.057.179.21.153.526-.057.705-2.272 1.935-4.696 2.243-7.095 2.243zM182.333 75.013c-.175 0-.344-.091-.436-.254-.136-.24-.051-.545.19-.681 6.149-3.469 13.83-9.05 18.688-21.521.1-.257.391-.386.647-.284.257.1.385.39.284.647-4.972 12.765-12.834 18.478-19.128 22.028-.078.045-.162.065-.245.065zM207.641 316.859c-.085 0-.17-.021-.248-.065-.239-.137-.323-.442-.187-.683 2.693-4.72 3.183-10.771 1.539-19.046-.842-4.234-2.43-7.142-4.359-7.977-1.012-.438-2.109-.295-3.265.427-2.561 1.597-4.775 2.008-6.766 1.26-2.817-1.057-5.083-4.518-6.929-10.583-.08-.264.068-.544.333-.624.267-.081.544.068.624.333 1.749 5.747 3.816 8.998 6.322 9.938 1.685.631 3.609.247 5.886-1.173 1.432-.892 2.881-1.062 4.191-.496 2.268.982 4.023 4.071 4.942 8.699 1.065 5.364 2.054 13.246-1.65 19.737-.092.163-.261.253-.433.253zM337.347 313.026l-.146-.021c-.264-.081-.412-.361-.332-.625 1.17-3.813 1.198-7.866 1.228-12.156.006-.831.012-1.664.026-2.496.151-8.646 1.893-11.728 7.169-12.681.267-.044.531.131.581.403.049.271-.132.532-.403.581-4.779.863-6.203 3.49-6.347 11.714-.015.829-.021 1.658-.026 2.485-.029 4.174-.06 8.489-1.271 12.442-.067.216-.265.354-.479.354zM195.55 317.217c-.096 0-.192-.027-.277-.084-.229-.153-.292-.464-.139-.693 1.104-1.657 3.435-5.997 1.215-10.49-.579-1.174-1.174-1.828-1.765-1.946-.814-.161-1.78.683-2.715 1.498-.901.787-1.833 1.601-2.853 1.759-.267.043-.528-.145-.57-.418-.042-.272.145-.528.418-.57.732-.113 1.554-.83 2.347-1.523 1.118-.976 2.272-1.982 3.568-1.727.925.186 1.731.998 2.466 2.484 1.726 3.493 1.259 7.681-1.279 11.488-.097.144-.255.222-.416.222zM342.293 312.881h-.015c-.275-.008-.493-.238-.485-.515.043-1.49-.04-3.072-.12-4.603-.234-4.495-.478-9.144 2.273-12.655.148-.188.41-.244.625-.135 1.824.95 1.747 2.823 1.685 4.327-.027.661-.054 1.286.058 1.801.059.27-.112.536-.383.594-.272.062-.535-.113-.594-.383-.139-.639-.109-1.358-.08-2.053.062-1.514.037-2.534-.791-3.174-2.235 3.185-2.011 7.473-1.794 11.626.081 1.55.164 3.152.121 4.684-.008.271-.231.486-.5.486zM181.875 68.57c-.15 0-.298-.067-.396-.194-.169-.219-.129-.533.09-.701 4.737-3.66 8.991-8.704 12.645-14.992.139-.24.445-.319.684-.181.239.139.32.444.182.683-3.719 6.401-8.059 11.542-12.898 15.281-.093.07-.201.104-.307.104zM334.122 57.679c-1.303 0-2.678-.687-3.986-3.157-.084-.158-.077-.348.018-.5l3.13-5.003c.146-.235.458-.305.688-.159.234.146.306.455.159.689l-2.975 4.755c1.737 3.099 3.316 2.505 5.142 1.824.837-.313 1.709-.636 2.586-.578.275.019.483.258.465.533-.02.276-.267.472-.533.465-.68-.049-1.396.228-2.167.516-.78.294-1.637.615-2.527.615z"/></g><g opacity=".1"><path d="M117.62 270.244c-1.989 0-3.767-2.213-4.879-6.07-.411-1.428-.879-3.077-1.223-4.599-5.35-23.657-14.56-44.639-28.986-66.029-1.528-2.265-3.27-4.289-4.955-6.247-2.183-2.536-4.439-5.159-6.359-8.418-.279-.474-.571-.936-.862-1.396-1.772-2.805-3.604-5.705-2.299-10.91 1.324-5.279 4.354-6.18 6.789-6.903 4.869-1.447 9.009-4.557 12.658-9.506l7.293-13.077.065-.091c1.367-1.52 2.755-2.291 4.124-2.291 2.044 0 3.903 1.672 5.524 4.97 2.135 4.342 4.869 10.135 7.083 16.438 6.47 18.422 15.056 25.557 26.477 21.98l.154-.049c.513-.163 1.095-.347 1.696-.347 1.201 0 2.067.723 2.65 2.21l.035.168c.006.236.03.482.053.718.057.588.105 1.096-.072 1.457-9.576 19.429-13.608 44.153-17.166 65.968-.183 1.119-.355 2.244-.528 3.369-.747 4.856-1.518 9.879-3.071 14.184-1.038 2.883-2.53 4.471-4.201 4.471zm-21.976-132.619l-7.3 13.081c-3.816 5.184-8.127 8.413-13.212 9.924-2.306.685-4.919 1.461-6.104 6.188-1.201 4.79.439 7.385 2.175 10.132.296.469.593.939.878 1.422 1.875 3.183 4.102 5.771 6.256 8.273 1.704 1.979 3.465 4.026 5.026 6.341 14.498 21.496 23.754 42.585 29.132 66.367.338 1.495.801 3.129 1.208 4.542.951 3.299 2.452 5.348 3.918 5.348 1.2 0 2.389-1.389 3.262-3.81 1.52-4.213 2.284-9.187 3.023-13.996.173-1.127.347-2.256.529-3.377 3.569-21.884 7.614-46.688 17.256-66.25.05-.125.004-.603-.026-.919-.022-.228-.044-.465-.054-.694-.541-1.326-1.185-1.498-1.688-1.498-.446 0-.928.153-1.394.3l-.158.05c-1.978.62-3.907.934-5.734.934-9.231 0-16.422-7.699-21.985-23.538-2.196-6.253-4.915-12.011-7.037-16.328-.989-2.013-2.595-4.412-4.627-4.412-1.063.002-2.188.648-3.344 1.92zM130.393 170.144c-2.92 0-5.532-1.863-7.907-5.613-6.174-9.75-9.422-22.268-10.53-40.591-.7-11.568-.432-23.281-.173-34.608.252-11.019.513-22.413-.119-33.644-.016-.276.195-.512.471-.527.284-.016.512.195.527.471.635 11.271.374 22.685.121 33.723-.259 11.307-.526 22.999.171 34.525 1.098 18.145 4.298 30.518 10.377 40.116 3.229 5.099 6.737 6.36 11.04 3.969 11.376-6.319 22.575-12.074 34.493-13.071 3.378-.283 6.81-.876 10.128-1.45 1.542-.267 3.083-.533 4.627-.771.274-.04.529.145.57.418.042.273-.145.528-.418.57-1.537.237-3.073.503-4.609.768-3.34.577-6.793 1.174-10.215 1.46-11.721.981-22.814 6.685-34.091 12.949-1.565.87-3.05 1.306-4.463 1.306zM109.77 320.041c-.274 0-.498-.222-.5-.496-.174-22.628-2.46-44.878-6.793-66.133-2.567-12.593-7.105-22.874-13.129-34.436-17.467-33.528-38.447-50.527-62.353-50.527h-.197c-.275 0-.499-.223-.5-.498-.001-.276.222-.501.498-.502h.2c24.311 0 45.584 17.178 63.239 51.064 5.246 10.069 10.479 21.242 13.222 34.699 4.347 21.317 6.639 43.632 6.813 66.324.002.276-.22.502-.496.504l-.004.001zM119.662 319.748c-.27 0-.492-.215-.5-.485-.045-1.591-.104-3.183-.162-4.774-.132-3.577-.268-7.276-.243-10.909.035-4.982.299-10.597 3.003-14.144 5.192-6.812 5.959-16.484 6.301-25.808 1.056-28.809 7.07-53.511 17.875-73.419 9.722-17.913 22.519-27.133 38.038-27.404.281.016.504.215.509.491s-.215.504-.491.509c-15.131.264-27.639 9.309-37.176 26.881-10.73 19.772-16.704 44.326-17.754 72.979-.347 9.483-1.136 19.332-6.505 26.376-2.397 3.146-2.762 8.369-2.798 13.546-.025 3.61.11 7.298.242 10.864.059 1.595.118 3.189.163 4.782.008.276-.21.507-.486.515h-.016zM115.656 237.943c-.348-.001-.712-.062-1.082-.186-.126-.042-.231-.133-.291-.252-2.203-4.42-4.314-9.076-6.356-13.578-5.53-12.191-11.248-24.797-19.215-33.625-1.788-1.982-4.121-5.11-3.735-9.374.469-5.184 3.413-6.787 4.657-7.236 2.42-.874 4.634-2.826 6.402-5.646 3.401-5.424 5.116-8.031 6.923-8.031 2.004 0 3.414 3.123 6.502 9.965l.388.858c.407.9.798 1.82 1.184 2.745 2.556 6.129 6.034 9.541 10.944 10.736.344.083.843.061 1.35.023.289-.022.582-.043.877-.043 1.321 0 2.827.39 3.978 3.285.042.107.047.227.011.337-3.79 11.867-6.408 25.552-8.004 41.838-.299 3.057-1.287 8.184-4.533 8.184zm-.574-1.078c.2.052.392.077.574.078 2.621 0 3.372-5.572 3.539-7.28 1.595-16.277 4.21-29.977 7.992-41.872-.958-2.294-2.04-2.49-2.982-2.49-.27 0-.538.021-.802.041-.614.045-1.208.061-1.661-.049-5.247-1.277-8.942-4.875-11.631-11.323-.382-.916-.77-1.827-1.172-2.718l-.388-.859c-2.639-5.847-4.232-9.376-5.591-9.376-1.27 0-3.136 2.874-6.075 7.562-1.889 3.012-4.278 5.105-6.911 6.056-1.064.384-3.583 1.774-4 6.385-.351 3.874 1.819 6.771 3.481 8.614 8.071 8.943 13.822 21.621 19.383 33.882 2.008 4.426 4.084 9.004 6.244 13.349zM26.509 158.312c-.272 0-.495-.218-.5-.492-.004-.276.215-.503.492-.508 17.302-.293 31.159-2.961 43.606-8.397 14.708-6.422 24.146-22.467 29.704-50.493 2.786-14.054 2.366-28.492 1.959-42.455-.008-.276.209-.506.485-.515.256.009.506.209.515.485.408 14.018.83 28.514-1.979 42.678-5.626 28.376-15.249 44.65-30.284 51.215-12.573 5.491-26.551 8.186-43.99 8.481l-.008.001zM138.048 151.527c-.439 0-.875-.052-1.305-.157-2.213-.537-4.218-2.435-5.959-5.643-4.468-8.231-7.34-16.1-9.039-24.763-3.234-16.496-3.876-33.669-4.498-50.277-.186-4.969-.378-10.107-.637-15.149-.014-.276.198-.511.474-.525.264-.021.511.198.525.474.259 5.049.452 10.191.638 15.164.62 16.569 1.261 33.702 4.48 50.122 1.678 8.56 4.518 16.338 8.936 24.478 1.601 2.949 3.389 4.681 5.315 5.148 1.431.347 2.951-.02 4.518-1.086 11.521-7.842 24.379-11.923 41.689-13.234.278-.012.515.186.536.461s-.186.515-.461.536c-17.126 1.297-29.833 5.326-41.202 13.064-1.356.923-2.7 1.387-4.01 1.387zM99.876 320.333c-.27 0-.492-.216-.5-.487l-.091-3.742c-.389-16.467-.792-33.493-6.503-47.299-2.499-6.041-4.872-12.426-7.167-18.601-7.475-20.115-15.205-40.915-28.595-53.423-8.394-7.841-17.85-11.572-29.759-11.742-.276-.004-.497-.231-.493-.507s.204-.53.507-.493c12.172.174 21.841 3.991 30.427 12.012 13.563 12.669 21.334 33.581 28.85 53.805 2.292 6.166 4.661 12.542 7.153 18.566 5.782 13.979 6.188 31.1 6.579 47.657l.091 3.741c.007.276-.211.506-.487.513h-.012zM124.609 319.603c-.276 0-.5-.223-.5-.499-.027-12.217 2.757-23.215 8.511-33.622 3.442-6.226 4.578-13.738 5.224-23.102 1.068-15.482 3.139-35.376 9.737-51.933 8.069-20.25 20.472-30.698 36.864-31.053.271.02.505.213.511.489s-.213.504-.489.511c-15.952.346-28.05 10.582-35.957 30.424-6.547 16.427-8.606 36.221-9.668 51.63-.655 9.497-1.815 17.13-5.347 23.518-5.669 10.254-8.412 21.093-8.386 33.136 0 .276-.223.5-.5.501zM89.984 320.625c-.271 0-.493-.215-.5-.487-.297-11.334-1.125-26.165-4.914-40.371-2.111-7.914-5.562-14.646-9.979-19.469-5.026-5.487-8.558-12.865-11.117-23.22-6.219-25.164-17.899-36.753-35.696-35.45-.273.018-.516-.188-.535-.462-.021-.275.187-.516.462-.536 18.376-1.333 30.386 10.493 36.74 36.208 2.517 10.186 5.975 17.426 10.883 22.784 4.526 4.941 8.056 11.817 10.208 19.887 3.817 14.307 4.649 29.214 4.948 40.604.007.275-.211.505-.487.513l-.013-.001zM26.038 141.722c-.274 0-.497-.22-.5-.495-.003-.276.218-.502.495-.505 13.873-.15 24.48-1.558 34.396-4.563 7.971-2.417 16.548-11.939 22.942-25.473 6.838-14.47 10.033-31.276 8.766-46.108-.161-1.885-.187-3.82-.21-5.69-.011-.877-.023-1.754-.048-2.629-.008-.276.21-.506.486-.514.282-.008.506.209.514.486.025.879.036 1.762.048 2.644.024 1.853.048 3.769.207 5.618 1.282 15.003-1.947 31.996-8.857 46.621-6.514 13.785-15.32 23.505-23.557 26.002-10.01 3.035-20.704 4.455-34.675 4.606h-.007zM129.53 318.534l-.083-.007c-.272-.045-.457-.303-.411-.575 1.089-6.536 3.206-12.518 6.66-18.824 1.207-2.203 2.39-4.518 3.534-6.756 1.557-3.045 3.166-6.192 4.862-9.115 3.611-6.221 3.463-13.946 3.319-21.416-.057-2.965-.116-6.03.061-8.965 2.026-33.782 11.175-50.958 29.667-55.691 1.76-.45 3.56-.669 5.299-.88.806-.098 1.611-.195 2.415-.315.28-.042.528.147.569.42s-.147.527-.42.568c-.812.122-1.627.221-2.442.32-1.708.207-3.475.422-5.172.855-18.002 4.608-26.92 21.504-28.917 54.783-.173 2.895-.115 5.939-.059 8.885.146 7.607.297 15.475-3.454 21.938-1.684 2.899-3.287 6.036-4.837 9.068-1.147 2.245-2.334 4.565-3.548 6.781-3.399 6.205-5.48 12.086-6.551 18.508-.04.245-.252.418-.492.418zM145.428 132.916c-.387 0-.763-.047-1.132-.141-2.25-.569-4.213-2.925-6.364-7.64-9.816-21.522-15.326-44.988-16.376-69.747-.012-.276.203-.509.479-.521.26-.022.509.203.521.479 1.044 24.628 6.524 47.969 16.287 69.374 2.013 4.413 3.77 6.598 5.699 7.085 1.519.385 3.34-.28 5.73-2.089 9.992-7.56 20.897-8.856 31.443-10.109l.978-.116c.274-.033.523.163.556.438.033.274-.163.523-.438.556l-.978.116c-10.413 1.237-21.181 2.517-30.957 9.914-2.156 1.63-3.887 2.401-5.448 2.401zM139.999 319.147l-.129-.017c-.267-.071-.425-.346-.354-.612 1.549-5.812 3.775-10.336 7.684-15.612 7.971-10.762 10.061-27.589 11.519-43.902.177-1.977.317-3.98.458-5.986.502-7.175 1.021-14.593 3.27-20.919 2.772-7.801 5.881-12.029 9.784-13.309 3.604-1.181 7.968.093 13.74 4.007.229.155.288.466.133.694-.155.229-.465.288-.694.134-5.495-3.727-9.583-4.96-12.867-3.885-3.584 1.175-6.493 5.208-9.153 12.692-2.203 6.198-2.717 13.548-3.214 20.654-.141 2.013-.282 4.022-.459 6.007-1.47 16.455-3.585 33.438-11.711 44.408-3.828 5.167-6.007 9.593-7.522 15.274-.063.225-.265.372-.485.372zM181.042 112.209c-10.405 0-21.23-2.382-33.04-7.265-10.43-4.312-15.354-13.718-15.965-30.499-.162-4.437-.119-8.952-.078-13.319.019-2.023.038-4.046.038-6.067 0-.276.224-.5.5-.5s.5.224.5.5c0 2.025-.019 4.051-.038 6.077-.042 4.356-.084 8.86.077 13.274.596 16.336 5.329 25.469 15.348 29.611 12.241 5.061 23.385 7.404 34.12 7.172.288.006.505.214.511.489.006.276-.213.504-.489.511-.494.011-.989.016-1.484.016zM77.344 320.999l-.113-.013c-.269-.062-.437-.331-.375-.601 2.3-9.93.369-18.326-2.609-29.104-1.699-6.146-4.185-11.869-6.999-16.112-2.836-4.277-6.219-8.708-10.486-7.095-9.978 3.769-16.271-7.085-20.137-15.574-1.468-3.224-3.233-5.78-4.94-8.253-1.107-1.604-2.251-3.262-3.301-5.081-.138-.239-.056-.545.183-.684.239-.137.544-.056.683.184 1.029 1.785 2.162 3.426 3.258 5.013 1.732 2.509 3.522 5.103 5.027 8.407 5.879 12.91 11.877 17.695 18.874 15.053 4.957-1.871 8.624 2.879 11.673 7.478 2.871 4.329 5.402 10.153 7.129 16.399 2.92 10.567 4.968 19.457 2.62 29.597-.054.23-.26.386-.487.386zM147.692 318.92c-.104 0-.21-.032-.3-.101-.221-.166-.265-.479-.099-.7 7.159-9.514 11.794-23.069 14.586-42.658.449-3.148.649-6.474.842-9.689.118-1.965.24-3.997.418-5.977 1.318-14.663 4.616-23.338 10.083-26.519 3.438-1.999 7.807-1.818 12.988.539.251.114.362.411.248.662-.115.252-.415.36-.662.248-4.938-2.246-8.886-2.438-12.071-.585-5.166 3.006-8.302 11.427-9.589 25.744-.177 1.965-.298 3.989-.416 5.947-.194 3.235-.396 6.581-.85 9.77-2.817 19.764-7.513 33.465-14.777 43.119-.099.132-.249.2-.401.2zM25.329 116.838c-.239 0-.45-.171-.492-.415-.047-.272.136-.531.408-.578l1.758-.301c11.527-1.965 22.415-3.82 32.24-14.279 7.501-7.986 13.894-15.808 16.146-30.697.755-4.996 1.232-9.264 1.101-13.854-.008-.276.209-.506.486-.514.276.004.506.209.514.486.133 4.665-.349 8.983-1.112 14.032-2.294 15.174-8.787 23.122-16.405 31.232-10.054 10.704-21.618 12.674-32.8 14.581l-1.756.3-.088.007zM173.183 106.041c-6.752 0-13.383-1.974-19.72-4.102-14.027-4.711-18.658-20.59-13.763-47.198.05-.271.314-.455.582-.401.271.05.451.311.401.582-4.791 26.042-.384 41.542 13.098 46.069 8.895 2.988 18.372 5.669 27.832 2.866.266-.08.543.073.622.337.078.265-.073.543-.337.622-2.918.864-5.828 1.225-8.715 1.225zM154.288 318.726c-.172 0-.339-.089-.433-.248-.139-.238-.058-.545.18-.684 5.42-3.161 7.055-11.129 8.637-18.834.417-2.034.849-4.137 1.344-6.117 1.243-4.974 1.588-10.506 1.922-15.856.11-1.76.22-3.521.36-5.267 1.105-13.758 3.948-21.831 8.945-25.406 2.952-2.111 6.72-2.606 11.197-1.468.268.067.43.34.361.607-.067.267-.34.432-.607.361-4.239-1.077-7.629-.646-10.369 1.312-4.74 3.391-7.451 11.23-8.53 24.673-.14 1.74-.25 3.495-.359 5.249-.336 5.395-.685 10.974-1.95 16.036-.49 1.96-.919 4.053-1.334 6.075-1.625 7.921-3.307 16.111-9.112 19.497-.08.048-.166.07-.252.07zM85.038 320.771c-.262 0-.482-.204-.499-.47-.939-15.484-4.663-29.971-11.718-45.588-3.879-8.588-9.196-12.629-15.786-11.983-4.971.48-9.03-1.873-12.771-7.399-.155-.229-.095-.539.134-.694.229-.156.54-.094.694.134 3.514 5.19 7.276 7.411 11.848 6.964 6.962-.668 12.775 3.674 16.793 12.567 7.107 15.732 10.858 30.329 11.805 45.939.017.275-.193.513-.469.529l-.031.001zM170.402 99.712c-6.079 0-12.015-1.46-17.718-4.365-5.143-2.619-7.94-7.29-8.313-13.882l-.04-.706c-.505-8.895-1.028-18.093 1.987-26.295.096-.259.384-.392.642-.297.259.095.392.382.297.642-2.943 8.008-2.427 17.101-1.928 25.894l.04.706c.356 6.299 2.897 10.566 7.769 13.048 7.468 3.804 15.347 5.067 23.414 3.75.652-.106 1.313-.173 1.976-.241 1.145-.116 2.329-.235 3.447-.577.264-.083.543.068.624.332s-.068.543-.332.624c-1.211.37-2.445.495-3.639.616-.643.065-1.283.129-1.916.233-2.116.346-4.222.518-6.31.518zM25.119 109.465c-.229 0-.437-.159-.488-.393-.06-.27.111-.537.381-.596 8.75-1.923 16.71-5.371 24.335-10.542 11.676-7.917 18.405-21.356 20.571-41.088.056-.516.608-.486.845-.475l.166.005c.25.007.506.209.515.485.008.276-.209.506-.485.515h-.092c-2.25 19.812-9.107 33.351-20.957 41.386-7.732 5.243-15.806 8.739-24.682 10.69l-.109.013zM64.154 321.389l-.063-.004c-.274-.034-.468-.284-.434-.559 1.303-10.351 2.15-21.357-2.922-32.113-3.672-7.787-7.494-10.345-12.39-8.288-2.646 1.111-4.9 1.226-6.889.354-2.715-1.19-4.947-4.289-6.823-9.473-1.192-3.292-2.824-7.802-5.494-9.876-.218-.169-.258-.483-.088-.701.169-.217.483-.259.702-.088 2.898 2.251 4.587 6.917 5.821 10.325 1.778 4.912 3.833 7.822 6.285 8.896 1.724.757 3.719.64 6.101-.359 5.431-2.281 9.78.511 13.681 8.784 5.187 10.998 4.331 22.167 3.01 32.664-.033.253-.249.438-.497.438zM168.396 93.235c-2.866 0-5.754-.442-8.657-1.611l-.823-.325c-3.512-1.373-7.493-2.929-8.449-10.005-1.248-9.229-1.794-19.676 3.608-27.177.161-.225.473-.275.698-.114.224.162.275.474.114.698-5.184 7.198-4.711 16.971-3.429 26.459.877 6.493 4.408 7.873 7.822 9.208l.832.329c7.215 2.905 14.473 1.103 21.491-.64l.188-.047c.265-.065.539.096.606.365.066.268-.097.54-.365.606l-.188.046c-4.401 1.093-8.896 2.208-13.448 2.208zM161.981 318.498c-.1 0-.2-.029-.287-.091-.226-.159-.28-.471-.121-.697 5.658-8.041 6.968-19.441 7.825-30.429l.177-2.332c.676-9.064 1.375-18.438 6.297-24.918 3.375-4.441 6.374-5.044 11.07-2.227.236.143.313.449.171.687-.142.236-.449.313-.687.171-4.24-2.545-6.703-2.048-9.759 1.975-4.743 6.245-5.4 15.057-6.096 24.387l-.177 2.336c-.868 11.126-2.201 22.679-8.004 30.927-.097.137-.251.211-.409.211zM25.185 102.083c-.206 0-.398-.127-.471-.332-.093-.26.042-.546.303-.639 9.573-3.418 18.099-6.931 25.493-15.342 6.507-7.401 10.512-16.801 12.244-28.737.04-.274.289-.469.566-.423.273.04.463.293.423.566-1.76 12.135-5.843 21.704-12.482 29.255-7.552 8.591-16.202 12.158-25.908 15.624l-.168.028zM57.554 321.537l-.054-.004c-.273-.035-.473-.239-.438-.513l.012-.094c1.327-10.295 2.579-20.02-2.385-29.136-2.515-4.618-5.315-6.232-8.324-4.804-2.74 1.305-5.213 1.503-7.35.592-3.042-1.298-5.479-4.811-7.448-10.74-.237-.714-.762-1.212-1.317-1.739-.284-.27-.567-.54-.819-.839-.178-.211-.152-.526.059-.704.212-.179.527-.15.705.06.229.271.486.514.744.758.62.59 1.262 1.198 1.578 2.15 1.874 5.642 4.127 8.956 6.891 10.135 1.887.807 4.022.617 6.527-.574 2.46-1.169 6.126-1.211 9.632 5.228 5.12 9.401 3.788 19.742 2.499 29.742-.033.256-.259.482-.512.482zM70.749 321.194l-.081-.007c-.272-.044-.458-.301-.413-.573 2.86-17.56-1.785-36.641-11.045-45.37-2.405-2.27-4.861-1.901-7.462-1.516-.689.103-1.402.209-2.106.261-5.219.384-9.336-1.029-12.472-9.164-2.028-5.262-4.609-11.097-8.372-14.478-.206-.185-.223-.501-.038-.706.187-.206.502-.223.706-.038 3.92 3.522 6.565 9.489 8.636 14.862 2.924 7.584 6.555 8.891 11.466 8.525.667-.049 1.33-.147 2.032-.252 2.721-.404 5.535-.823 8.294 1.776 9.484 8.941 14.256 28.396 11.347 46.259-.039.248-.251.421-.492.421zM114.726 211.729c-.1 0-.198-.029-.282-.087-5.676-3.88-9.812-10.406-12.645-19.952-.079-.265.073-.543.337-.622.264-.076.543.073.622.337 2.666 8.984 6.487 15.21 11.669 19 1.746-7.09.09-16.148-3.823-20.515-1.973-2.201-3.6-3.157-4.966-2.938-1.288.211-2.457 1.519-3.476 3.888-.109.254-.403.374-.657.262-.253-.108-.371-.403-.262-.656 1.179-2.741 2.563-4.206 4.233-4.48 1.735-.283 3.655.782 5.873 3.257 4.244 4.736 5.975 14.669 3.858 22.143-.043.155-.159.279-.311.334l-.17.029zM168.577 318.303c-.073 0-.146-.016-.216-.05-.249-.119-.354-.418-.234-.667 3.814-7.927 4.505-17.704 5.174-27.159.142-2.015.285-4.03.456-6.033.678-7.926 4.047-14.669 8.193-16.397 1.867-.777 3.724-.461 5.369.913.212.177.24.492.063.704-.176.213-.492.241-.704.063-1.361-1.136-2.821-1.39-4.344-.758-3.756 1.566-6.945 8.11-7.582 15.561-.17 1.997-.313 4.008-.455 6.018-.675 9.549-1.373 19.424-5.27 27.522-.086.178-.264.283-.45.283zM24.975 94.71c-.191 0-.374-.11-.457-.295-.113-.252 0-.548.251-.661 9.678-4.337 18.939-9.258 25.884-21.674 1.323-2.365 2.188-5.219 3.025-7.979.726-2.394 1.477-4.869 2.525-7.021.121-.248.419-.352.669-.23.248.121.351.42.23.669-1.014 2.081-1.753 4.517-2.467 6.873-.852 2.81-1.733 5.716-3.109 8.176-7.094 12.683-16.511 17.69-26.348 22.098l-.203.044zM169.438 79.18c-2.4 0-4.303-.793-5.656-2.359-2.313-2.677-2.961-7.538-1.924-14.446.629-4.188 2.331-6.235 4.132-8.403l.198-.239c.176-.212.49-.242.704-.065.212.176.242.491.065.704l-.199.239c-1.709 2.058-3.324 4.001-3.912 7.913-.992 6.607-.423 11.198 1.691 13.644 1.154 1.336 2.803 2.013 4.899 2.013h.036c2.699-.01 5.467-.909 8.145-1.779 1.226-.398 2.493-.81 3.748-1.136.266-.071.54.09.61.358.069.268-.091.541-.358.61-1.227.319-2.479.726-3.69 1.119-2.75.894-5.594 1.818-8.45 1.828l-.039-.001zM165.175 85.952c-3.398 0-6.98-.535-8.718-6.646-1.749-6.154-1.389-13.237 1.041-20.484.479-1.426 1.316-2.483 2.126-3.505.353-.445.717-.905 1.038-1.381.153-.23.465-.291.694-.135.229.154.29.465.135.694-.342.508-.719.984-1.083 1.443-.792.999-1.539 1.942-1.962 3.203-2.366 7.055-2.721 13.934-1.027 19.893 1.714 6.028 5.167 5.971 8.826 5.908l1.349-.02c4.617-.062 9.392-.127 13.895-2.25.25-.118.548-.01.666.239.118.25.011.548-.239.666-4.699 2.216-9.584 2.282-14.308 2.346l-1.345.02-1.088.009zM24.766 87.337c-.184 0-.36-.101-.448-.276-.124-.247-.023-.547.224-.671 9.751-4.876 19.534-11.77 25.04-29.047.084-.263.366-.408.628-.325.263.084.408.365.325.628-5.619 17.63-15.599 24.664-25.546 29.638-.072.036-.148.053-.223.053zM174.073 318.141c-.087 0-.175-.022-.256-.07-.237-.142-.314-.448-.173-.686 2.589-4.342 2.815-10.043 3.035-15.557.099-2.485.201-5.054.517-7.474 1.273-9.736 3.098-14.527 10.028-15.42.264-.041.524.158.56.433.035.273-.158.524-.433.56-5.728.737-7.783 4.003-9.164 14.557-.311 2.375-.412 4.922-.509 7.384-.224 5.64-.455 11.47-3.175 16.029-.094.157-.26.244-.43.244zM44.368 321.974l-.11-.013c-.27-.061-.438-.328-.378-.598.152-.673.297-1.35.443-2.027.319-1.483.649-3.017 1.039-4.481 1.288-4.838-.218-8.917-1.463-11.564-.61-1.298-1.407-2.065-2.368-2.281-1.504-.34-2.959.738-3.368 1.078-1.899 1.567-3.437 2.099-4.709 1.618-1.688-.637-2.768-2.972-3.504-7.568-.044-.272.142-.529.415-.573.271-.041.529.142.573.415.655 4.088 1.594 6.309 2.87 6.791.903.336 2.121-.134 3.72-1.454.498-.411 2.273-1.721 4.223-1.282 1.278.286 2.306 1.239 3.055 2.831 1.311 2.789 2.896 7.093 1.524 12.248-.384 1.44-.711 2.962-1.028 4.434-.146.681-.293 1.361-.445 2.038-.054.229-.26.388-.489.388zM25.565 125.133c-.255 0-.474-.195-.498-.454-.025-.275.177-.519.452-.544 3.082-.284 6.214-.304 9.243-.323 4.888-.031 9.942-.064 14.854-1.215 5.238-1.228 10.276-2.934 14.346-10.22 1.904-3.408 4.418-5.909 6.85-8.328 1.059-1.054 2.154-2.143 3.178-3.289l3.113-5.579c5.361-12.084 5.478-26.306 4.881-38.619-.013-.276.2-.51.475-.524.271-.022.51.199.524.476.602 12.43.479 26.798-4.987 39.114l-3.161 5.668-.063.089c-1.054 1.183-2.173 2.296-3.256 3.373-2.383 2.37-4.847 4.821-6.682 8.106-4.269 7.642-9.527 9.425-14.991 10.707-5.021 1.177-10.132 1.21-15.076 1.242-3.008.019-6.118.039-9.158.319l-.044.001zM174.51 71c-.564 0-1.126-.017-1.686-.034l-.844-.023c-1.32-.03-2.53-.777-3.409-2.105-1.6-2.418-1.847-6.294-.6-9.424.643-1.615 1.583-2.889 2.492-4.121.405-.548.81-1.097 1.188-1.675.152-.231.462-.295.692-.145.231.151.296.461.145.692-.389.595-.804 1.158-1.22 1.722-.911 1.235-1.772 2.402-2.368 3.897-1.133 2.844-.926 6.341.505 8.502.49.74 1.338 1.629 2.598 1.657l.852.023c2.876.088 5.591.168 8.104-1.971.21-.178.526-.153.705.057s.153.526-.057.705c-2.273 1.934-4.697 2.243-7.097 2.243zM24.556 79.964c-.175 0-.344-.091-.436-.254-.136-.24-.051-.545.19-.681 6.149-3.469 13.831-9.05 18.688-21.521.1-.257.389-.385.647-.284.257.1.384.39.284.647-4.972 12.766-12.834 18.478-19.128 22.029-.078.044-.162.064-.245.064zM49.863 321.812c-.084 0-.169-.021-.248-.065-.24-.137-.323-.442-.186-.683 2.693-4.72 3.182-10.772 1.538-19.047-.841-4.234-2.43-7.142-4.359-7.977-1.011-.438-2.109-.294-3.265.426-2.56 1.597-4.773 2.009-6.767 1.261-2.816-1.057-5.082-4.519-6.927-10.583-.08-.265.069-.544.333-.624.267-.079.543.069.624.333 1.748 5.747 3.816 8.998 6.322 9.938 1.684.631 3.608.247 5.886-1.173 1.431-.893 2.879-1.062 4.191-.496 2.268.981 4.022 4.071 4.942 8.699 1.066 5.364 2.055 13.246-1.65 19.738-.092.162-.26.253-.434.253zM179.569 317.978l-.146-.021c-.264-.081-.413-.361-.332-.625 1.169-3.814 1.198-7.867 1.228-12.158.006-.831.012-1.662.026-2.494.151-8.646 1.894-11.728 7.169-12.681.269-.045.531.13.581.403.049.271-.132.532-.403.581-4.779.863-6.203 3.49-6.347 11.714-.015.828-.021 1.656-.026 2.483-.029 4.174-.06 8.49-1.271 12.444-.067.215-.265.354-.479.354zM37.772 322.168c-.095 0-.191-.027-.277-.084-.23-.153-.292-.464-.139-.693 1.104-1.657 3.435-5.996 1.215-10.49-.58-1.174-1.173-1.828-1.765-1.946-.813-.165-1.78.683-2.715 1.498-.901.787-1.833 1.601-2.852 1.759-.274.045-.528-.145-.571-.418-.042-.272.145-.528.417-.57.733-.113 1.553-.83 2.347-1.523 1.117-.976 2.267-1.982 3.568-1.727.925.186 1.731.998 2.466 2.484 1.725 3.493 1.259 7.681-1.28 11.488-.094.144-.252.222-.414.222zM184.516 317.832h-.015c-.276-.008-.494-.238-.486-.515.042-1.49-.04-3.072-.12-4.603-.234-4.495-.477-9.144 2.273-12.655.149-.188.409-.245.625-.135 1.824.95 1.747 2.823 1.685 4.327-.027.661-.054 1.286.058 1.801.059.27-.112.536-.383.594-.271.06-.536-.113-.594-.383-.139-.639-.109-1.358-.08-2.053.062-1.514.037-2.534-.791-3.174-2.235 3.185-2.011 7.473-1.794 11.626.081 1.55.165 3.152.121 4.684-.007.271-.229.486-.499.486zM24.097 73.521c-.15 0-.298-.067-.396-.194-.169-.219-.129-.533.09-.701 4.737-3.66 8.991-8.704 12.645-14.992.138-.239.444-.319.683-.181.239.139.32.444.181.683-3.718 6.401-8.058 11.542-12.897 15.281-.091.07-.199.104-.306.104zM176.344 62.63c-1.303 0-2.677-.687-3.986-3.157-.083-.158-.077-.348.018-.499l3.13-5.002c.147-.234.457-.305.689-.159.234.146.305.455.159.689l-2.975 4.755c1.737 3.097 3.318 2.507 5.141 1.824.838-.313 1.705-.639 2.587-.577.276.019.483.258.465.533-.02.276-.258.473-.533.465-.672-.046-1.396.227-2.168.516-.78.292-1.637.612-2.527.612z"/></g></g><path fill="#F7F8F9" d="M260.099 80.833l55.859 23.794v173.285l-51.94-22.123-3.919-1.669-3.919 1.669-61.94 26.383-61.94-26.383-3.919-1.669-3.919 1.669-51.94 22.123v-173.284l55.859-23.794 61.94 26.385 3.919 1.669 3.919-1.669 61.94-26.386m0-10.869l-65.859 28.054-65.859-28.054-65.858 28.054v195.023l65.859-28.052 65.859 28.052 65.859-28.052 65.859 28.052v-195.023l-65.86-28.054z"/><path opacity=".15" fill="#2D333B" enable-background="new" d="M62.523 293.042l65.859-28.054v-195.024l-65.859 28.054v195.024zm131.718-195.024v195.023l65.859-28.054v-195.023c-.001 0-65.859 28.054-65.859 28.054z"/><path opacity=".15" fill="#2D333B" enable-background="new" d="M248.237 115.326c-9.482 0-17.114 7.797-17.114 17.279 0 2.51.784 5.12 1.607 7.124l-10.077 10.077c-18.377-14.15-44.231-12.638-60.808 3.94-18.041 18.041-18.082 47.251-.041 65.291 18.041 18.041 47.284 18.033 65.325-.008 16.33-16.332 17.721-41.922 4.585-59.899l10.504-10.504c2.001.828 3.902 1.105 6.031 1.105 9.482 0 17.19-7.721 17.19-17.203s-7.72-17.202-17.202-17.202zm0 26.393c-5.071 0-9.196-4.125-9.196-9.196s4.125-9.196 9.196-9.196 9.196 4.125 9.196 9.196-4.125 9.196-9.196 9.196z"/><path fill="#B3B9BC" d="M248.236 143.718c8.931 0 16.196-7.266 16.196-16.196s-7.266-16.196-16.196-16.196c-8.931 0-16.196 7.266-16.196 16.196 0 2.287.402 4.437 1.354 6.549l.203.549-11.185 11.185-.614-.452c-7.818-5.994-17.533-9.254-27.428-9.254-12.066 0-23.389 4.72-31.921 13.252-8.536 8.537-13.228 19.897-13.228 31.97s4.707 23.428 13.243 31.965c8.537 8.537 19.889 13.24 31.963 13.24 12.072 0 23.423-4.7 31.96-13.237 15.853-15.854 17.591-40.647 4.343-58.744l-.658-.843 11.566-11.566.755.379c1.853.698 3.92 1.203 5.843 1.203zm-10.196-16.196c0-5.622 4.574-10.196 10.196-10.196s10.196 4.574 10.196 10.196-4.574 10.196-10.196 10.196-10.196-4.574-10.196-10.196z"/><path fill="#fff" d="M230.056 181.225c-.531-19.219-16.266-34.638-35.613-34.638s-35.082 15.419-35.613 34.638l-.012-.497-.013.497c0 19.682 15.956 35.638 35.638 35.638s35.638-15.956 35.638-35.638l-.013-.496-.012.496z"/><g opacity=".2" fill="#F7F8F9"><path d="M248.236 113.326c8.593 0 15.625 6.732 16.146 15.196.02-.332.051-.662.051-1 0-8.931-7.266-16.196-16.196-16.196-8.931 0-16.196 7.266-16.196 16.196 0 .328.032.652.052.977.531-8.453 7.558-15.173 16.143-15.173zM248.236 139.718c5.622 0 10.196-4.574 10.196-10.196 0-.338-.018-.671-.051-1-.504 5.154-4.861 9.196-10.146 9.196s-9.641-4.042-10.146-9.196c-.032.329-.051.662-.051 1 .002 5.622 4.576 10.196 10.198 10.196zM162.47 151.37c8.532-8.532 19.875-13.231 31.941-13.231 9.896 0 19.776 3.427 27.594 9.421l.821.659 11.892-11.892-.491-.837c-.116-.257-.591-.909-.512-.988l-11.303 11.303-.614-.452c-7.818-5.994-17.533-9.254-27.428-9.254-12.066 0-23.389 4.72-31.921 13.252-8.536 8.537-13.228 19.897-13.228 31.97l.029 1.005c.253-11.699 4.92-22.656 13.22-30.956zM230.487 156.115l.451.636c5.69 7.773 8.607 16.78 8.805 25.753.214-9.452-2.531-18.972-8.42-27.225l-.836.836z"/></g><path opacity=".2" fill="#F7F8F9" enable-background="new" d="M194.443 216.863c-19.347 0-35.082-15.42-35.613-34.638-.009.333-.025.665-.025 1 0 19.682 15.956 35.638 35.638 35.638 19.683 0 35.638-15.956 35.638-35.638 0-.335-.016-.667-.025-1-.531 19.219-16.266 34.638-35.613 34.638z"/><path fill="#828E9E" d="M194.443 147.587c19.347 0 35.082 15.419 35.613 34.638.009-.333.025-.665.025-1 0-19.682-15.956-35.638-35.638-35.638s-35.638 15.956-35.638 35.638c0 .335.016.667.025 1 .531-19.219 16.266-34.638 35.613-34.638z"/><ellipse opacity=".15" fill="#2D333B" enable-background="new" cx="177.643" cy="165.083" rx="3.3" ry="3.958"/><circle fill="#427BC5" cx="177.643" cy="164.425" r="3.3"/><circle fill="#427BC5" cx="211.243" cy="198.025" r="3.3"/><ellipse opacity=".15" fill="#2D333B" enable-background="new" cx="211.243" cy="198.683" rx="3.3" ry="3.958"/><ellipse opacity=".15" fill="#2D333B" enable-background="new" cx="177.643" cy="198.683" rx="3.3" ry="3.958"/><circle fill="#427BC5" cx="177.643" cy="198.025" r="3.3"/><ellipse opacity=".15" fill="#2D333B" enable-background="new" cx="211.243" cy="165.083" rx="3.3" ry="3.958"/><circle fill="#427BC5" cx="211.243" cy="164.425" r="3.3"/><polygon fill="#DA4453" points="194.416,202.669 188.711,181.175 194.416,159.681 200.175,181.175"/><polygon opacity=".15" fill="#2D333B" enable-background="new" points="194.416,202.494 188.711,181 200.175,181"/><path fill="#DA4453" d="M230.638 134.956l10.587 10.587c2.577 2.579 1.852 5.612-.467 7.933-2.319 2.32-5.356 3.045-7.933.467l-10.587-10.587c-2.578-2.577-1.853-5.614.467-7.933 2.321-2.32 5.355-3.045 7.933-.467z"/><path opacity=".15" fill="#2D333B" enable-background="new" d="M229.572 138.188c-2.271-2.271-4.869-1.706-6.913.337-.923.923-1.575 1.994-1.786 3.079.264.63.657 1.269 1.252 1.865l10.587 10.587c1.373 1.373 2.933 1.746 4.389 1.502.516-.301.966-.642 1.429-1.105 2.043-2.044 2.636-4.671.366-6.941l-9.324-9.324z"/></svg>