<svg xmlns="http://www.w3.org/2000/svg" xmlns:xlink="http://www.w3.org/1999/xlink" width="370" height="370"><path opacity=".5" fill="#7EC135" enable-background="new" d="M143.948 185.5h-53.697c-1.39 0-2.751.505-2.751 1.895v1.517c0 1.39.749 2.528 2 2.528s2 1.138 2 2.528v63.518c0 4.702 4.645 9.014 9.348 9.014h32.638c4.702 0 8.014-4.312 8.014-9.014v-64.127c1-1.097.901-1.919 1.963-1.919 1.251 0 2.037-1.138 2.037-2.528v-1.517c0-1.39-.162-1.895-1.552-1.895z"/><path opacity=".3" fill="#fff" enable-background="new" d="M249.645 235.884c15.831-18.541 23.204-42.394 20.759-67.165-2.459-24.919-14.542-47.804-34.024-64.439l8.607-10.08c-1.815-1.756-3.687-3.468-5.625-5.123l-12.982 15.203c19.482 16.635 31.565 39.52 34.024 64.439 2.444 24.771-4.928 48.624-20.759 67.165l15.204 12.981c1.413-1.654 2.763-3.347 4.065-5.067l-9.269-7.914z"/><circle cx="184.441" cy="184.25" r="150" fill="none"/><circle fill="#2D333B" cx="184.441" cy="184.25" r="150"/><defs><circle id="a" cx="184.441" cy="184.25" r="150"/></defs><clipPath><use xlink:href="#a" overflow="visible"/></clipPath><path fill="#996956" d="M50.335 251.5c24.656 49.072 75.445 82.75 134.106 82.75s109.449-33.678 134.106-82.75h-268.212z"/><defs><path id="b" d="M50.335 251.5c24.656 49.072 75.445 82.75 134.106 82.75s109.449-33.678 134.106-82.75h-268.212z"/></defs><clipPath id="c"><use xlink:href="#b" overflow="visible"/></clipPath><g opacity=".1" stroke="#000" stroke-linecap="round" stroke-linejoin="round" stroke-miterlimit="10" fill="none" clip-path="url(#c)"><path d="M223.912 249.803c-5.445-3.711-8.806-7.887-10.404-12.556-.847-2.476-1.862-5.04-6.989-6.298-6.149-1.508-8.991.924-12.481 2.754-5.988 3.142-9.783 7.289-15.185 10.552-19.236 11.618-41.258 21.35-69.048 26.608-1.558.295-3.23.698-4.781 1.08-7.152 1.762-8.033 5.512-1.508 7.76 5.531 1.905 12.067 2.698 18.411 3.75 24.695 4.098 49.452 8.309 69.758 17.717.37.171 1.256.011 2.037.005 2.662-.91 1.972-2.463 1.529-3.694-4.233-11.77 4.419-19.907 22.951-25.546 6.034-1.836 11.677-4.109 17.09-6.459 5.157-2.239 6.495-5.146 2.542-8.41l-13.922-7.263zm100.029 25c-23.928.806-47.773-1.887-71.704-.989-15.96.599-30.639 2.716-42.217 9.265-5.921 3.349-6.676 7.057-4.144 11.137 6.704 10.801 13.007 21.624 14.267 33.094.521 4.745 1.709 9.474 2.594 14.21"/><path d="M46.646 267.605c23.718.253 46.855-1.47 69.466-5.286 13.961-2.356 25.312-7.008 36.089-11.98 33.512-15.46 52.824-34.828 52.274-59.404"/><path d="M47.125 277.088c5.485-.045 10.978-.229 16.452-.097 5.382.13 11.053.542 14.597 3.037 7.108 5.003 16.931 6.078 27.526 6.619 29.357 1.499 55.676 7.484 77.218 18.427 19.107 9.706 28.639 22.23 29.173 36.532"/><path d="M191.811 246.906c-4.258-.426-7.395 1.662-9.386 3.289-12.572 10.276-32.142 16.152-49.267 23.692-1.151 3.313 4.5 4.514 8.042 4.893 15.67 1.675 30.637 4.299 44.206 8.468 4.48-1.556 2.588-3.864 3.012-5.557 1.14-4.556 4.459-8.077 11.392-10.608.961-.351 1.916-.707 2.85-1.078 13.791-5.479 14.425-5.469 2.646-12.34-3.143-1.834-5.274-4.078-6.263-6.486-.772-1.876-2.974-3.847-7.232-4.273zm23.311-56.059c.522 14.201 2.781 28.223 9.629 42.116 7.765 15.755 27.075 24.362 53.953 29.679 14.814 2.931 29.663 2.811 44.758 2.678"/><path d="M324.18 279.544c-22.972.67-46.178.077-68.578 3.697-9.874 1.595-18.15 4.511-25.711 8.152-5.739 2.764-7.11 6.266-4.268 10.032 9.691 12.841 13.156 26.283 14.537 39.95"/><path d="M46.166 258.122c18.551-.104 38.107.243 53.7-5.401 26.823-9.71 58.256-16.469 75.232-33.033 9.216-8.992 11.98-18.553 11.955-28.609"/><path d="M47.364 281.83c13.932.218 25.396 3.635 35.217 8.714 7.054 3.647 15.71 4.783 24.583 5.497 19.391 1.56 38.389 4.131 54.574 10.258 22.398 8.479 32.317 20.833 32.93 35.453"/><path d="M45.687 248.64c14.565-.091 28.807-.88 42.454-3.971 8.774-1.988 15.661-5.288 20.499-9.304 6.07-5.038 14.091-8.049 23.976-10.11 28.721-5.988 38.583-18.148 37.015-34.031"/><path d="M232.544 190.703c.334 11.118 1.582 22.167 5.418 33.171 5.534 15.875 42.217 34.111 76.313 32.055 2.87-.173 5.803-.068 8.707-.092"/><path d="M48.572 286.563c7.631 1.291 13.951 3.715 19.728 6.675 5.517 2.828 11.443 5.426 16.809 8.333 9.372 5.077 21.345 3.085 32.213 3.871 34.097 2.465 53.209 11.143 58.546 29.088.724 2.433.932 4.909 1.379 7.364"/><path d="M324.42 284.286c-27.155.57-51.257 5.709-72.802 14.353-8.518 3.418-9.598 6.362-5.238 11.578 8.275 9.901 9.631 20.46 11.201 31.015"/><path d="M48.11 296.581c6.7 1.74 11.476 4.229 16.358 7.571 11.483 7.862 29.091 10.214 46.595 11.948 9.59.95 19.748 1.17 28.205 4.043 15.367 5.22 17.783 11.276 9.91 21.984"/><path d="M324.926 294.295c-6.784-.12-13.582-.428-20.35-.322-17.625.274-27.141 4.95-31.306 14.44-4.725 10.768-7.446 21.636-6.979 32.746"/><path d="M45.075 236.523c10.683 2.435 19.861.613 30.792-1.96 6.256-1.473 12.379-3.748 16.958-6.465 4.629-2.746 9.366-6.041 7.462-10.479-3.603-8.402 4.86-14.04 15.75-18.402 5.595-2.241 9.122-5.21 13.911-7.667"/><path d="M48.483 303.956c11.659 8.104 27.694 12.266 45.318 14.862 5.364.79 11.017.956 16.508 1.502 23.883 2.376 33.476 9.08 27.254 21.901"/><path d="M258.677 190.488c2.365 11.444 4.199 22.89 16.073 33.112 8.278 7.125 16.737 13.672 32.817 16.168 4.948.768 9.636 1.361 14.669 1.319"/><path d="M325.299 301.671c-25.745-4.76-43.796-2.093-48.763 11.999-3.13 8.882-5.633 17.796-2.527 26.898"/><path d="M48.802 310.278c4.459 6.858 16.68 7.8 26.719 10.255 6.996 1.711 14.779 1.909 22.319 2.593 19.446 1.766 31.398 6.624 28.108 19.192"/><path d="M45.447 243.898c18.064-.68 33.592-4.743 47.879-10.417 9.523-3.782 13.38-9.183 12.614-15.377-.573-4.633 1.875-8.351 7.332-11.659"/><path d="M325.618 307.993c-8.794-3.084-18.609-2.66-28.193-2.335-8.154.276-11.999 3.773-14.007 7.453-4.015 7.356-5.08 15.006-3.578 22.655.341 1.737.359 3.533.97 5.274"/><path d="M266.42 190.424c2.1 8.136 5.781 15.964 11.58 23.677 8.404 11.178 22.348 18.15 43.909 20.684.072.008.026.331.034.506"/><path d="M44.436 223.879c11.874 1.57 23.014 2.317 33.979-2.239 8.202-3.408 11.16-7.231 8.742-12.329-2.62-5.523-.286-9.404 9.048-12.337 3.925-1.233 8.366-2.695 10.514-5.232"/><path d="M325.991 315.368c-7.699-5.131-18.105-4.942-28.239-3.87-7.675.812-8.769 4.86-10.28 8.402-3.013 7.06-.944 14.065 1.082 21.075"/><path d="M49.175 317.654c8.46 5.513 20.239 7.077 32.37 8.152 10.482.93 21.123 1.457 28.464 6.608 4.329 3.037 5.226 5.636 2.389 10.016"/><path d="M274.177 190.623c3.538 8.694 7.319 17.322 16.715 24.909 7.594 6.132 17.53 10.416 30.68 12.383"/><path d="M44.116 217.557c10.758 1.451 21.317 2.893 30.986-1.779 5.015-2.423 6.802-5.351 5.113-8.508-3.293-6.158-.073-10.413 10.109-13.332 1.273-.365 1.911-1.374 2.844-2.084"/><path d="M44.755 230.201c18.634 3.089 38.874-1.11 47.941-9.874 3.175-3.068 1.597-6.352 1.287-9.504-.466-4.732.684-8.48 9.085-11.302 5.807-1.951 11.784-4.337 15.266-7.874"/><path d="M180.996 262.807c-9.568 2.431-16.479 6.185-20.462 11.56 7.651 2.101 17.86.741 22.706-3.19 3.574-2.9 5.41-6.173-1.302-8.904"/><path d="M49.495 323.975c10.251 4.642 22.933 4.892 35.156 6.06 11.976 1.144 20.662 7.524 16.133 12.49"/><path d="M281.92 190.559c4.701 9.306 9.999 18.394 23.45 25.426 4.752 2.484 11.026 3.383 15.882 5.609"/><path d="M326.577 326.958c-2.341-1.787-4.47-3.516-8.896-4.199-10.889-1.68-17.066.355-16.93 6.522.085 3.855 2.126 7.711 3.289 11.566"/><path d="M296.297 340.911c-2.564-4.833-2.519-9.786-2.7-14.735-.128-3.502-.338-7.275 6.423-8.915 7.113-1.726 14.576-.775 21.23 1.366 2.068.665 3.395 2.022 5.062 3.063"/><path d="M289.663 190.495c5.63 10.033 13.366 19.286 31.269 24.776"/><path d="M49.761 329.244c6.823 3.794 16.264 2.778 24.462 3.898 10.768 1.471 14.961 3.478 15.914 9.471"/><path d="M43.477 204.913c2.285.508 4.619.959 6.845 1.536 4.763 1.235 8.881.282 12.483-1.209 4.034-1.671 2.739-4.662 1.333-6.208-3.764-4.14-1.621-6.031 5.801-6.986"/><path d="M249.966 190.559c.919 7.72-.066 15.465 2.049 23.179 1.46 5.328 3.486 10.193 11.249 14.247 5.136 2.682 8.288 6.491 12.328 9.796l5.967 3.113c12.229 5.128 26.35 5.845 40.944 5.459"/><path d="M326.843 332.227c-1.998-1.213-3.671-2.683-6.061-3.587-5.154-1.951-11.311-.179-11.332 3.205-.02 3.018-.332 6.095 2.333 8.94"/><path d="M297.406 190.431c4.612 7.321 10.989 13.993 23.207 18.518"/><path d="M43.743 210.181c6.042 3.22 13.252 3.061 20.402 1.888 6.98-1.145 10.738-4.121 8.13-7.88-4.18-6.026-.477-9.693 9.278-12.239"/><path d="M50.027 334.512c4.906 1.45 10.235 1.318 15.562 1.497 8.997.303 11.908 1.944 12.933 6.701"/><path d="M43.157 198.591c3.275 2.026 7.595 3.133 11.568 1.399 5.652-2.466-.751-5.003-1.228-7.546"/><path d="M50.267 339.253c6.11.266 13.022-1.219 17.859 2.277-1.19 2.129-4.128.966-6.058 1.315"/><path d="M304.168 190.112c4 4.692 9.383 8.861 16.125 12.516"/><path d="M326.546 335.918l-5.311-3.091c-5.588 2.624-1.566 5.402-1.709 7.892"/></g><defs><circle id="d" cx="184.441" cy="184.25" r="150"/></defs><clipPath id="e"><use xlink:href="#d" overflow="visible"/></clipPath><path opacity=".15" clip-path="url(#e)" fill="#2D333B" enable-background="new" d="M286 266.5h-119.897l28.019 27h46.058l20.447 20.226c13.001-7.681 24.748-17.385 34.845-28.493 1.761-2.559 3.476-4.986 5.135-7.663l-14.607-11.07z"/><defs><circle id="f" cx="184.441" cy="184.25" r="150"/></defs><clipPath id="g"><use xlink:href="#f" overflow="visible"/></clipPath><path opacity=".15" clip-path="url(#g)" fill="#2D333B" enable-background="new" d="M217.037 330.688l-80.037-74.808s-46.612 2.61-41.67 8.815l41.436 61.815c14.978 5.017 31.008 7.74 47.675 7.74 11.196 0 22.101-1.237 32.596-3.562z"/><path fill="#7EC135" d="M142.749 185.5h-52.498c-1.39 0-2.751.505-2.751 1.895v1.517c0 1.39.749 2.528 2 2.528s2 1.138 2 2.528v63.518c0 4.702 4.646 9.014 9.348 9.014h32.638c4.702 0 8.014-4.312 8.014-9.014v-63.518c0-1.39.749-2.528 2-2.528s2-1.138 2-2.528v-1.517c0-1.39-1.361-1.895-2.751-1.895z"/><path opacity=".9" fill="#E3F1FB" enable-background="new" d="M142.749 185.5h-52.498c-1.39 0-2.751.505-2.751 1.895v1.517c0 1.39.749 2.528 2 2.528s2 1.138 2 2.528v36.532h50v-36.532c0-1.39.749-2.528 2-2.528s2-1.138 2-2.528v-1.517c0-1.39-1.361-1.895-2.751-1.895z"/><circle fill="#7EC135" cx="109.626" cy="130.712" r="8.626"/><ellipse transform="matrix(-.494 -.87 .87 -.494 50.265 282.797)" opacity=".5" fill="#E3F1FB" enable-background="new" cx="107.447" cy="126.768" rx="2.528" ry="3.669"/><path fill="#7EC135" d="M124.576 111.086c-.467 0-.918.064-1.351.172.485-.693.775-1.533.775-2.444 0-2.359-1.913-4.272-4.272-4.272s-4.272 1.913-4.272 4.272 1.913 4.272 4.272 4.272c.216 0 .422-.033.629-.063-.843.977-1.357 2.247-1.357 3.639 0 3.08 2.497 5.576 5.576 5.576 3.08 0 5.576-2.497 5.576-5.576s-2.496-5.576-5.576-5.576z"/><circle fill="#7EC135" cx="133.477" cy="58.563" r="3"/><circle fill="#7EC135" cx="130.576" cy="83.662" r="4"/><circle fill="#7EC135" cx="127.154" cy="69.24" r="5.183"/><ellipse transform="matrix(-.494 -.87 .87 -.494 84.418 278.283)" opacity=".5" fill="#E3F1FB" enable-background="new" cx="123.21" cy="114.57" rx="1.945" ry="3.055"/><ellipse transform="matrix(-.494 -.87 .87 -.494 84.176 263.562)" opacity=".5" fill="#E3F1FB" enable-background="new" cx="118.804" cy="107.28" rx="1.258" ry="1.975"/><ellipse transform="matrix(-.494 -.87 .87 -.494 122.368 235.769)" opacity=".5" fill="#E3F1FB" enable-background="new" cx="129.81" cy="82.267" rx="1.033" ry="1.623"/><ellipse transform="matrix(-.494 -.87 .87 -.494 148.604 201.015)" opacity=".5" fill="#E3F1FB" enable-background="new" cx="132.812" cy="57.253" rx=".688" ry="1.081"/><ellipse transform="matrix(-.494 -.87 .87 -.494 129.794 210.649)" opacity=".5" fill="#E3F1FB" enable-background="new" cx="126.212" cy="67.545" rx="1.722" ry="2.704"/><circle fill="#7EC135" cx="119" cy="171.338" r="3"/><circle fill="#7EC135" cx="125.323" cy="160.661" r="5.183"/><ellipse transform="matrix(.494 .87 -.87 .494 208.418 -16.841)" opacity=".5" fill="#E3F1FB" enable-background="new" cx="118.674" cy="170.587" rx=".688" ry="1.082"/><ellipse transform="matrix(.494 .87 -.87 .494 201.439 -27.416)" opacity=".5" fill="#E3F1FB" enable-background="new" cx="124.267" cy="159.306" rx="1.722" ry="2.704"/><path fill="#828E9E" d="M242.245 244.295l-15.643-13.356c16.288-19.076 23.873-43.618 21.359-69.104-2.53-25.639-14.962-49.184-35.006-66.299l13.356-15.643c24.107 20.584 39.065 48.968 42.12 79.922 3.069 31.107-6.23 61.109-26.186 84.48z"/><path opacity=".15" fill="#2D333B" enable-background="new" d="M232.099 85.164l-8.855 10.371c20.044 17.115 32.477 40.661 35.006 66.299 2.515 25.487-5.071 50.028-21.359 69.104l9.537 8.143c-.642.848-1.297 1.688-1.963 2.522 18.418-22.961 26.919-51.862 23.966-81.789-2.918-29.578-16.713-56.803-38.965-77.125.89.816 1.769 1.639 2.633 2.475z"/><path fill="#828E9E" d="M242.245 244.295c.716-.839 1.415-1.689 2.104-2.544-.687.856-1.388 1.705-2.104 2.544z"/><path fill="#828E9E" d="M226.311 79.893c.948.809 1.878 1.634 2.796 2.468-.919-.833-1.848-1.659-2.796-2.468z"/><polygon fill="#828E9E" points="259.564,40.055 217.344,28.742 213.687,70.208 241.999,77.794"/><rect x="185.892" y="91.328" transform="matrix(-.259 .966 -.966 -.259 378.488 -78.407)" fill="#E44768" width="66.857" height="29.314"/><polygon fill="#828E9E" points="216.067,154.704 224.679,140.447 197.36,133.127 197.689,149.779"/><polygon opacity=".15" fill="#2D333B" enable-background="new" points="245.075,36.172 227.71,74.144 210.628,137.895 202.544,151.08 216.067,154.704 224.039,141.31 225.161,141.611 242.199,78.026 259.564,40.055"/><path fill="#B3B9BC" d="M261.43 41.028c-.22.823-1.066 1.311-1.889 1.091l-43.35-11.884c-.823-.221-1.311-1.066-1.091-1.889l.496-1.849c.221-.823 1.066-1.311 1.889-1.091l43.35 11.884c.823.221 1.311 1.066 1.091 1.889l-.496 1.849z"/><path opacity=".15" fill="#2D333B" enable-background="new" d="M260.835 37.289l-15.455-4.141c.823.221 1.311 1.066 1.091 1.889l-.496 1.849c-.221.823-1.066 1.311-1.889 1.091l15.455 4.141c.823.221 1.669-.268 1.889-1.091l.496-1.849c.22-.822-.268-1.668-1.091-1.889z"/><path fill="#B3B9BC" d="M226.975 142.571c-.221.823-1.066 1.311-1.889 1.091l-29.861-8.001c-.823-.221-1.311-1.066-1.091-1.889l.496-1.849c.221-.823 1.066-1.311 1.889-1.091l29.861 8.001c.823.221 1.311 1.066 1.091 1.889l-.496 1.849z"/><path opacity=".15" fill="#2D333B" enable-background="new" d="M226.38 138.832l-14.931-4.001c.823.221.787.926.567 1.749l-.496 1.849c-.221.823-1.066 1.312-1.889 1.091l15.454 4.141c.823.221 1.669-.268 1.889-1.091l.496-1.849c.221-.823-.268-1.669-1.09-1.889z"/><path fill="#B3B9BC" d="M243.539 80.751c-.221.823-1.066 1.311-1.889 1.091l-29.861-8.001c-.823-.221-1.311-1.066-1.091-1.889l.496-1.849c.221-.823 1.066-1.311 1.889-1.091l29.861 8.001c.823.221 1.311 1.066 1.091 1.889l-.496 1.849z"/><path opacity=".15" fill="#2D333B" enable-background="new" d="M242.944 77.013l-14.489-3.882c.823.221 1.311 1.066 1.091 1.889l-.496 1.849c-.221.823-1.508 1.193-2.331.972l14.931 4.001c.823.221 1.669-.268 1.889-1.091l.496-1.849c.22-.823-.268-1.669-1.091-1.889z"/><path fill="#B3B9BC" d="M216.521 158.404c-.221.823-1.066 1.311-1.889 1.091l-18.27-4.895c-.823-.221-1.311-1.066-1.091-1.889l.496-1.849c.221-.823 1.066-1.311 1.889-1.091l18.27 4.895c.823.221 1.311 1.066 1.091 1.889l-.496 1.849z"/><path opacity=".15" fill="#2D333B" enable-background="new" d="M215.925 154.666l-13.523-3.623c.823.221 1.311 1.066 1.091 1.889l-.496 1.849c-.221.823-1.066 1.311-1.889 1.091l13.523 3.623c.823.221 1.669-.268 1.889-1.091l.496-1.849c.221-.823-.268-1.669-1.091-1.889z"/><circle fill="#2D333B" cx="235.398" cy="103.956" r="13.236"/><circle fill="#F7F8F9" cx="235.398" cy="103.956" r="9"/><polygon fill="#B3B9BC" points="225.5,227.371 225.5,246.5 165.5,246.5 165.5,266.5 285.5,266.5 285.5,246.213 285.5,243.399"/><polygon opacity=".15" fill="#2D333B" enable-background="new" points="239.5,231.111 239.5,266.5 285.5,266.5 285.5,246.213 285.5,243.399"/><path fill="#F7F8F9" d="M241.966 233.579c-.34 1.269-1.645 2.022-2.914 1.682l-68.814-18.439c-1.269-.34-2.022-1.645-1.682-2.914l.839-3.131c.34-1.269 1.645-2.022 2.914-1.682l68.814 18.439c1.269.34 2.022 1.645 1.682 2.914l-.839 3.131z"/><path opacity=".15" fill="#2D333B" enable-background="new" d="M244.398 103.956c0-4.971-4.029-9-9-9-2.26 0-4.319.839-5.9 2.214 5.602.12 10.109 4.69 10.109 10.321 0 1.8-.462 3.491-1.271 4.964 3.526-1.218 6.063-4.559 6.062-8.499z"/><path fill="#2D333B" d="M286.5 267.166c0 .46.407 1.334-.074 1.334h-120.554c-.481 0-1.372-.873-1.372-1.334v-.332c0-.46.89-.334 1.372-.334h120.554c.481 0 .074-.127.074.334v.332z"/><path opacity=".15" fill="#2D333B" enable-background="new" d="M242.452 231.766l-.486 1.813c-.34 1.269-1.895 2.022-3.164 1.682l-13.302-3.497v2.496l14.704 3.873c1.405.377 2.975-.457 3.351-1.863l.992-3.467c.039-.147.09-.295.103-.441l-2.198-.596z"/><circle fill="#2D333B" cx="240.398" cy="245.956" r="5.952"/><circle fill="#F7F8F9" cx="240.398" cy="245.956" r="3"/><path opacity=".15" fill="#2D333B" enable-background="new" d="M243.398 245.956c0-1.657-1.343-3-3-3-.753 0-1.44.28-1.967.738 1.867.04 3.37 1.563 3.37 3.44 0 .6-.154 1.164-.424 1.655 1.176-.406 2.022-1.519 2.021-2.833z"/><path opacity=".5" fill="#F7F8F9" enable-background="new" d="M104.5 257.486v-71.986h-8v71.986c0 4.702 4.645 9.014 9.348 9.014h8c-4.703 0-9.348-4.312-9.348-9.014z"/><line opacity=".3" stroke="#2D333B" stroke-linecap="round" stroke-linejoin="round" stroke-miterlimit="10" enable-background="new" x1="129.5" y1="201" x2="137.5" y2="201" fill="none"/><line opacity=".3" stroke="#2D333B" stroke-linecap="round" stroke-linejoin="round" stroke-miterlimit="10" enable-background="new" x1="129.5" y1="211" x2="137.5" y2="211" fill="none"/><line opacity=".3" stroke="#2D333B" stroke-linecap="round" stroke-linejoin="round" stroke-miterlimit="10" enable-background="new" x1="129.5" y1="221" x2="137.5" y2="221" fill="none"/></svg>