<svg xmlns="http://www.w3.org/2000/svg" width="370" height="370"><circle fill="#5D9CEC" cx="184.951" cy="197.829" r="150"/><path opacity=".5" fill="#E2E6E8" enable-background="new" d="M327.895 233.626c.821-3.01.606-6.318-.869-9.335-3.226-6.601-11.224-9.345-17.824-6.12-2.026.991-3.738 2.455-5.015 4.255-4.301-3.429-10.335-4.204-15.451-1.705-6.98 3.412-10.005 11.715-6.971 18.777-2.304 1.488-3.838 3.863-4.32 6.483l-.389.481c-4.301-3.43-10.336-4.205-15.452-1.705-5.201 2.543-8.202 7.804-8.139 13.243h-133.808c.063-5.439-2.938-10.7-8.139-13.243-5.116-2.5-11.151-1.725-15.452 1.705l-.389-.481c-.482-2.62-2.016-4.995-4.32-6.483 3.034-7.062.009-15.365-6.971-18.777-5.116-2.499-11.15-1.724-15.451 1.705-1.277-1.8-2.989-3.264-5.015-4.255-6.6-3.225-14.598-.481-17.824 6.12-1.475 3.017-1.69 6.325-.869 9.335-1.398.122-2.763.461-4.047 1.003l-.163-.091c-.545-.306-1.116-.52-1.695-.664 4.553 18.455 12.513 35.567 23.188 50.622 3.78.637 7.709-.236 10.859-2.471 1.173 1.871 2.799 3.428 4.767 4.53 3.028 1.698 6.439 2.068 9.578 1.325 2.962 1.34 6.326 1.679 9.522.885.411 2.169 1.356 4.213 2.786 5.959 4.654 5.681 13.069 6.52 18.753 1.864 1.262-1.034 2.279-2.255 3.055-3.588h129.463c.776 1.333 1.793 2.554 3.055 3.588 5.684 4.656 14.099 3.817 18.753-1.864 1.43-1.746 2.375-3.79 2.786-5.959 3.196.794 6.56.455 9.522-.885 3.139.743 6.55.373 9.578-1.325 1.968-1.102 3.594-2.659 4.767-4.53 2.225 1.579 4.84 2.479 7.516 2.648 10.689-15.028 18.668-32.113 23.249-50.542-.854-.251-1.731-.427-2.624-.505z"/><path opacity=".5" fill="#E2E6E8" enable-background="new" d="M328.349 200.467c-.737 0-1.466.04-2.185.114-.204-2.35-.833-4.701-1.93-6.944-4.813-9.849-16.746-13.943-26.594-9.131-3.023 1.479-5.577 3.663-7.482 6.349-6.417-5.116-18.42-6.272-26.053-2.544-10.414 5.091-14.927 17.479-10.401 28.016-2.187 1.681-3.783 3.332-4.912 4.99-4.744-4.784-11.32-7.069-17.647-5.429-1.306.339-2.53.835-3.673 1.453-.264.093-.53.176-.791.28l-.562.531c-4.998 3.358-8.031 9.372-8.16 16.054-2.498-.684-5.031-.842-7.479-.522-2.948-.38-6.016-.083-8.998 1.011-1.377.505-2.677 1.163-3.891 1.944-.613-.075-1.225-.114-1.837-.136l-.012-2.115c-3.591-1.233-7.265-1.46-10.742-.838-3.477-.622-7.151-.394-10.742.838l-.012 2.115c-.611.022-1.223.061-1.837.136-1.214-.781-2.515-1.438-3.891-1.944-2.983-1.094-6.05-1.391-8.998-1.011-2.449-.321-4.981-.163-7.479.522-.128-6.682-3.161-12.695-8.16-16.054l-.562-.531c-.261-.104-.527-.188-.791-.28-1.144-.618-2.368-1.115-3.673-1.453-6.327-1.64-12.903.644-17.647 5.429-1.129-1.658-2.725-3.309-4.912-4.99 4.527-10.537.014-22.925-10.401-28.016-7.633-3.729-19.636-2.572-26.053 2.544-1.905-2.686-4.46-4.87-7.482-6.349-9.847-4.812-21.781-.718-26.594 9.131-1.097 2.243-1.725 4.594-1.93 6.944-.719-.074-1.447-.114-2.185-.114-2.318 0-4.552.378-6.651 1.075.602 24.759 7.206 48.027 18.407 68.413l.039-.002.027.12c1.868 3.392 3.865 6.702 5.981 9.928h251.09199999999998c2.116-3.226 4.114-6.536 5.981-9.928l.027-.12.039.002c11.201-20.386 17.806-43.654 18.407-68.413-2.099-.697-4.333-1.075-6.651-1.075z"/><path fill="#828E9E" d="M310.45 280h-250.997c26.126 39.82 70.683 66.463 121.55 67.777 1.315.024 2.628.052 3.949.052s2.634-.028 3.949-.052c50.866-1.314 95.423-27.957 121.549-67.777z"/><path fill="#F6BB42" d="M248.441 247.579c-.316-.268-31.754-27.177-31.754-63.571 0-9.168.524-17.335 1.116-24.914.021-.268-.098-.059-.281-.257-.182-.197-.466.164-.735.164h-61.719c-.269 0-.526-.361-.708-.164-.183.197-.275.225-.254.493.578 7.404 1.113 15.428 1.113 24.796 0 36.394-31.472 63.244-31.79 63.511-.217.184-.429.394-.429.678v12.958c0 .28.209.545.42.729.211.183.532.268.812.226 16.87-2.415 38.69-3.745 61.403-3.745 22.98 0 44.941 1.35 61.818 3.802l.144.01c.23 0 .674-.083.851-.235.212-.183.553-.449.553-.729v-13.016c-.001-.283-.343-.553-.56-.736z"/><path opacity=".15" fill="#2D333B" enable-background="new" d="M248.441 247.579c-.316-.268-31.754-27.177-31.754-63.571 0-9.168.524-17.335 1.116-24.914.021-.268-.098-.059-.281-.257-.182-.197-.466.164-.735.164h-61.719c-.269 0-.526-.361-.708-.164-.183.197-.275.225-.254.493.578 7.404 1.113 15.428 1.113 24.796 0 36.394-31.472 63.244-31.79 63.511-.217.184-.429.394-.429.678v12.958c0 .28.209.545.42.729.211.183.532.268.812.226 16.87-2.415 38.69-3.745 61.403-3.745 22.98 0 44.941 1.35 61.818 3.802l.144.01c.23 0 .674-.083.851-.235.212-.183.553-.449.553-.729v-13.016c-.001-.283-.343-.553-.56-.736z"/><path fill="#F6BB42" d="M186.692 23.975c-.365-.476-1.165-.476-1.53 0-.324.422-32.411 42.886-32.411 100.641 0 52.588 5.8 88.336 10.667 109.063 5.289 22.528 10.51 32.424 10.73 32.834.168.315.495.487.851.487h21.857c.356 0 .683-.172.851-.487.22-.411 5.441-10.318 10.73-32.846 4.867-20.728 10.667-56.469 10.667-109.058 0-57.754-32.087-100.212-32.412-100.634z"/><path fill="#E9573F" d="M163.419 233.679c2.692 11.466 5.365 19.653 7.371 24.99 4.885-.119 9.845-.185 14.857-.185 5.208 0 10.355.06 15.417.186 2.007-5.339 4.68-13.531 7.373-25.003 3.308-14.09 7.046-35.126 9.102-63.667h-63.222c2.055 28.546 5.793 49.588 9.102 63.679z"/><path fill="#E9573F" d="M205.206 58s-.019-.389-.072-.511c-8.662-20.123-18.332-33.483-18.428-33.615-.364-.496-1.193-.529-1.556-.032-.097.132-9.766 13.541-18.428 33.664-.053.121-.072.494-.072.494h38.556z"/><path opacity=".15" fill="#2D333B" enable-background="new" d="M186.757 23.975c-.194-.254-.757-.362-.757-.345v243.37h10.856c.356 0 .683-.172.851-.487.22-.411 5.441-10.318 10.73-32.846 4.867-20.728 10.7-56.469 10.7-109.058-.001-57.754-32.055-100.212-32.38-100.634z"/><path fill="#F6BB42" d="M124.946 215.992c-.129-13.31-7.995-29.005-8.33-29.673-.163-.325-.495-.319-.859-.319h-.004c-.362 0-.694-.01-.859.312-.344.674-8.437 16.495-8.566 29.809-.126 13.094-.001 62.6 0 63.102.001.531.433.777.965.777h16.688c.532 0 .963-.245.965-.776.001-.503.126-50.138 0-63.232z"/><path fill="#E9573F" d="M106.309 270c.01 6 .019 8.732.019 8.861.001.531.433 1.139.965 1.139h16.688c.532 0 .963-.581.965-1.112 0-.129.009-2.888.019-8.888h-18.656z"/><path opacity=".15" fill="#2D333B" enable-background="new" d="M115 280h8.981c.532 0 .963-.245.965-.776.001-.502.126-50.216 0-63.31-.129-13.31-8.224-29.07-8.559-29.738-.163-.325-1.387-.385-1.387-.385v94.209z"/><path fill="#F6BB42" d="M265.77 215.992c-.129-13.31-7.995-29.005-8.33-29.673-.163-.325-.495-.319-.859-.319h-.004c-.362 0-.694-.01-.859.312-.344.674-8.437 16.495-8.566 29.809-.126 13.094-.001 62.6 0 63.102.001.531.433.777.965.777h16.688c.532 0 .963-.245.965-.776.001-.503.126-50.138 0-63.232z"/><path fill="#E9573F" d="M247.134 270c.01 6 .019 8.732.019 8.861.001.531.433 1.139.965 1.139h16.688c.532 0 .963-.581.965-1.112 0-.129.009-2.888.019-8.888h-18.656z"/><path opacity=".15" fill="#2D333B" enable-background="new" d="M256 280h8.805c.532 0 .963-.245.965-.776.001-.502.126-50.216 0-63.31-.129-13.31-8.136-29.07-8.471-29.738-.163-.325-1.299-.385-1.299-.385v94.209z"/><circle fill="#5D9CEC" cx="185.352" cy="105.09" r="14.215"/><path opacity=".2" fill="#E2E6E8" enable-background="new" d="M186 119.305c-8 0-14.901-6.364-14.901-14.215s6.901-14.214 14.901-14.214v28.429z"/><path fill="#E9573F" d="M185.352 120.752c-8.636 0-15.662-7.026-15.662-15.662s7.026-15.662 15.662-15.662 15.662 7.026 15.662 15.662-7.026 15.662-15.662 15.662zm0-28.43c-7.04 0-12.768 5.728-12.768 12.768s5.728 12.768 12.768 12.768 12.768-5.728 12.768-12.768-5.728-12.768-12.768-12.768z"/><path opacity=".2" fill="#2D333B" enable-background="new" d="M310.45 280h-205.53l148.26 51.425c23.262-11.907 43.014-29.697 57.27-51.425z"/></svg>