<svg xmlns="http://www.w3.org/2000/svg" width="370" height="370"><circle fill="#828E9E" cx="185" cy="185" r="150"/><g fill="#B3B9BC"><path d="M280.756 283.35c-2.646 2.638-4.143 5.061-3.57 5.636l1.911 1.916.789.791 1.911 1.916c.573.575 3.001-.916 5.647-3.554 2.646-2.638 4.143-5.061 3.57-5.636l-1.911-1.916-.789-.791-1.911-1.916c-.574-.574-3.001.916-5.647 3.554zM239.281 324.705c-2.646 2.638-4.143 5.061-3.57 5.636l1.911 1.916.789.791 1.911 1.916c.573.575 3.001-.916 5.647-3.554 2.646-2.638 4.143-5.061 3.57-5.636l-1.911-1.916-.789-.791-1.911-1.916c-.574-.575-3.001.916-5.647 3.554z"/></g><path opacity=".5" fill="#777" d="M277.186 288.987c-.573-.575.924-2.998 3.57-5.636s5.073-4.129 5.647-3.554l2.7 2.708c.573.575-.924 2.998-3.57 5.636s-5.073 4.129-5.647 3.554l-2.7-2.708z"/><path fill="#B3B9BC" d="M279.863 291.671c-.573-.575.924-2.998 3.57-5.636s5.073-4.129 5.647-3.554l2.7 2.708c.573.575-.924 2.998-3.57 5.636s-5.073 4.129-5.647 3.554l-2.7-2.708z"/><path opacity=".5" fill="#777" d="M235.711 330.341c-.573-.575.924-2.998 3.57-5.636s5.073-4.129 5.647-3.554l2.7 2.708c.573.575-.924 2.998-3.57 5.636s-5.073 4.129-5.647 3.554l-2.7-2.708z"/><path fill="#B3B9BC" d="M238.388 333.026c-.573-.575.924-2.998 3.57-5.636s5.073-4.129 5.647-3.554l2.7 2.708c.573.575-.924 2.998-3.57 5.636s-5.073 4.129-5.647 3.554l-2.7-2.708z"/><path fill="#B3B9BC" d="M223.564 313.278c12.885 12.922 33.827 12.899 46.749.014 12.922-12.885 12.989-33.845.104-46.767-8.663-8.689-20.957-11.505-32.034-8.53l-116.316-112.437-19.28 19.224 112.226 116.776c-2.851 10.976-.02 23.124 8.551 31.72zm12.509-12.653c-5.958-5.975-5.944-15.683.031-21.641 5.975-5.958 15.683-5.944 21.641.031s5.944 15.683-.031 21.641c-5.975 5.958-15.683 5.944-21.641-.031z"/><path opacity=".5" fill="#E2E6E8" d="M270.55 313.053l-.001-.001-.094.099.095-.098z"/><path fill="#B3B9BC" d="M208.342 305.965l10.804 10.836 1.536-1.532 1.532 1.536-1.536 1.532 13.785 13.825 16.129-16.082-42.246-42.369c5.755 12.461 5.414 25.398-.004 32.254z"/><path fill="#B3B9BC" d="M274.442 264.729l-1.532-1.536.768-.766-10.804-10.836c-6.872 5.397-19.81 5.701-32.255-.09l42.246 42.369 16.129-16.082-13.785-13.825-.767.766z"/><path fill="#B3B9BC" stroke="#828282" stroke-width="2" stroke-miterlimit="10" d="M220.556 263.39c2.39-2.383 5.021-4.375 7.81-5.988l-112.353-108.871-10.236 10.206 108.606 112.736c1.65-2.893 3.701-5.618 6.173-8.083z"/><path opacity=".5" fill="#E2E6E8" d="M229.075 271.934c-9.863 9.834-9.886 25.858-.052 35.721 9.834 9.863 25.858 9.886 35.721.052 9.863-9.834 9.886-25.858.052-35.721-9.834-9.863-25.858-9.887-35.721-.052zm28.639 28.722c-5.975 5.958-15.683 5.944-21.641-.032-5.958-5.975-5.944-15.683.031-21.641 5.975-5.958 15.683-5.944 21.641.031 5.958 5.977 5.944 15.684-.031 21.642z"/><path opacity=".5" fill="#777" d="M119.786 143.06l15.471 15.137c-4.018 2.206-7.798 5.006-11.207 8.406-3.492 3.482-6.354 7.355-8.596 11.476l-15.095-15.518c2.221-4.029 5.041-7.817 8.463-11.229 3.342-3.331 7.037-6.087 10.964-8.272z"/><path fill="#B3B9BC" d="M133.581 88.127l-2.297-2.304.768-.766-9.956-9.985-.768.766-2.297-2.304.768-.766-10.722-10.753-.768.766-2.297-2.304.768-.766-11.488-11.521-89.863 89.602 11.487 11.521.768-.766 2.297 2.304-.768.766 10.722 10.753.768-.766 2.297 2.304-.768.766 9.956 9.985.768-.766 2.297 2.304-.768.766 41.355 41.475 16.133-16.086c-2.814-15.574 1.883-32.029 13.869-43.98 11.986-11.951 28.455-16.601 44.02-13.741l15.841-15.795-41.355-41.475-.767.766z"/><circle fill="#828282" cx="101.437" cy="143.924" r="5.931"/><circle fill="#B3B9BC" cx="101.437" cy="143.924" r="2.907"/><path opacity=".5" fill="#E2E6E8" d="M103.49 145.982c1.137-1.134 1.14-2.974.006-4.111-1.134-1.137-2.974-1.14-4.111-.006l4.105 4.117z"/><path fill="#777" d="M270.64 313.025l.095-.098-.001-.001-.094.099z"/><path fill="#777" d="M270.55 313.053l-.001-.001-.094.099.095-.098z"/><path fill="#777" d="M270.736 312.927l-.001-.001-.094.099.095-.098z"/><polygon fill="#E2E6E8" points="133.581,88.127 131.284,85.823 132.05,85.059 122.093,75.075 121.328,75.838 119.031,73.534 119.796,72.771 109.074,62.018 108.309,62.781 106.012,60.477 106.776,59.714 95.288,48.194 91.448,52.023 171.869,132.66 175.704,128.836 134.347,87.363" opacity=".5"/><polygon fill="#E2E6E8" points="132.917,155.908 132.184,155.19 132.184,155.19"/><path fill="#E2E6E8" d="M130.48 161.193l4.778 4.674-.072.041 95.03 91.785c11.846 4.913 24.602 5.158 31.125.034l23.825 23.88 3.83-3.819-13.785-13.825-.768.766-1.532-1.536.768-.766-10.804-10.836c-6.523 5.124-18.513 5.646-30.358.733l-97.331-94.085c-1.611.888-3.181 1.874-4.706 2.954z" opacity=".5"/><rect x=".631" y="104.037" transform="matrix(.708 -.706 .706 .708 -56.22 75.32)" fill="#828282" width="124.731" height="3.254"/><rect x="13.65" y="117.094" transform="matrix(.708 -.706 .706 .708 -61.64 88.324)" fill="#828282" width="124.731" height="3.254"/><rect x="25.904" y="129.383" transform="matrix(.708 -.706 .706 .708 -66.74 100.562)" fill="#828282" width="124.731" height="3.254"/><g fill="#777"><path d="M236.073 300.625l-.333-.37-15.058 15.014 1.532 1.536 15.108-15.064c-.431-.347-.849-.716-1.249-1.116zM257.746 279.015c.399.4.767.82 1.113 1.252l15.584-15.539-1.532-1.536-15.534 15.489.369.334z"/></g><g fill="#B3B9BC"><path d="M89.244 283.35c2.646 2.638 4.143 5.061 3.57 5.636l-1.911 1.916-.789.791-1.911 1.916c-.573.575-3.001-.916-5.647-3.554-2.646-2.638-4.143-5.061-3.57-5.636l1.911-1.916.789-.791 1.911-1.916c.573-.574 3.001.916 5.647 3.554zM130.719 324.705c2.646 2.638 4.143 5.061 3.57 5.636l-1.911 1.916-.789.791-1.911 1.916c-.573.575-3.001-.916-5.647-3.554-2.646-2.638-4.143-5.061-3.57-5.636l1.911-1.916.789-.791 1.911-1.916c.574-.575 3.001.916 5.647 3.554z"/></g><path opacity=".5" fill="#777" d="M92.814 288.987c.573-.575-.924-2.998-3.57-5.636s-5.073-4.129-5.647-3.554l-2.7 2.708c-.573.575.924 2.998 3.57 5.636s5.073 4.129 5.647 3.554l2.7-2.708z"/><path fill="#B3B9BC" d="M90.137 291.671c.573-.575-.924-2.998-3.57-5.636s-5.073-4.129-5.647-3.554l-2.7 2.708c-.573.575.924 2.998 3.57 5.636s5.073 4.129 5.647 3.554l2.7-2.708z"/><path opacity=".5" fill="#777" d="M134.289 330.341c.573-.575-.924-2.998-3.57-5.636s-5.073-4.129-5.647-3.554l-2.7 2.708c-.573.575.924 2.998 3.57 5.636s5.073 4.129 5.647 3.554l2.7-2.708z"/><path fill="#B3B9BC" d="M131.612 333.026c.573-.575-.924-2.998-3.57-5.636s-5.073-4.129-5.647-3.554l-2.7 2.708c-.573.575.924 2.998 3.57 5.636s5.073 4.129 5.647 3.554l2.7-2.708z"/><path fill="#B3B9BC" d="M154.987 281.558l112.226-116.776-19.28-19.224-116.316 112.437c-11.078-2.975-23.371-.159-32.034 8.53-12.885 12.922-12.818 33.882.104 46.767s33.864 12.908 46.749-.014c8.571-8.596 11.402-20.744 8.551-31.72zm-42.701 19.098c-5.975-5.958-5.989-15.666-.031-21.641s15.666-5.989 21.641-.031c5.975 5.958 5.989 15.666.031 21.641-5.958 5.975-15.666 5.989-21.641.031z"/><path opacity=".5" fill="#E2E6E8" d="M99.45 313.053l.001-.001.094.099-.095-.098z"/><path fill="#B3B9BC" d="M161.658 305.965l-10.804 10.836-1.536-1.532-1.532 1.536 1.536 1.532-13.785 13.825-16.129-16.082 42.246-42.369c-5.755 12.461-5.414 25.398.004 32.254z"/><path fill="#B3B9BC" d="M95.558 264.729l1.532-1.536-.768-.766 10.804-10.836c6.871 5.397 19.81 5.701 32.255-.09l-42.247 42.369-16.129-16.082 13.785-13.825.768.766z"/><path fill="#B3B9BC" stroke="#828282" stroke-width="2" stroke-miterlimit="10" d="M149.444 263.39c-2.39-2.383-5.021-4.375-7.81-5.988l112.354-108.871 10.236 10.206-108.607 112.736c-1.65-2.893-3.701-5.618-6.173-8.083z"/><path opacity=".5" fill="#E2E6E8" d="M105.204 271.986c-9.834 9.863-9.811 25.887.052 35.721 9.863 9.834 25.887 9.811 35.721-.052 9.834-9.863 9.811-25.887-.052-35.721-9.863-9.835-25.887-9.811-35.721.052zm7.05 7.029c5.958-5.975 15.666-5.989 21.641-.031 5.975 5.958 5.989 15.666.031 21.641-5.958 5.975-15.666 5.989-21.641.032-5.974-5.959-5.988-15.666-.031-21.642z"/><path opacity=".5" fill="#777" d="M250.214 143.06l-15.471 15.137c4.018 2.206 7.798 5.006 11.207 8.406 3.492 3.482 6.354 7.355 8.596 11.476l15.095-15.518c-2.221-4.029-5.041-7.817-8.463-11.229-3.342-3.331-7.037-6.087-10.964-8.272z"/><path fill="#B3B9BC" d="M236.419 88.127l2.297-2.304-.768-.766 9.956-9.985.768.766 2.297-2.304-.768-.766 10.722-10.753.768.766 2.297-2.304-.768-.766 11.487-11.521 89.863 89.602-11.487 11.521-.768-.766-2.297 2.304.768.766-10.722 10.753-.768-.766-2.297 2.304.768.766-9.956 9.985-.768-.766-2.297 2.304.768.766-41.355 41.475-16.133-16.086c2.814-15.574-1.883-32.029-13.869-43.98-11.986-11.951-28.455-16.601-44.02-13.741l-15.841-15.795 41.355-41.475.768.766z"/><circle fill="#828282" cx="268.563" cy="143.924" r="5.931"/><circle fill="#B3B9BC" cx="268.563" cy="143.924" r="2.907"/><path opacity=".5" fill="#E2E6E8" d="M266.51 145.982c-1.137-1.134-1.14-2.974-.006-4.111 1.134-1.137 2.974-1.14 4.111-.006l-4.105 4.117z"/><path fill="#777" d="M99.36 313.025l-.095-.098.001-.001.094.099z"/><path fill="#777" d="M99.45 313.053l.001-.001.094.099-.095-.098z"/><path fill="#777" d="M99.264 312.927l.001-.001.094.099-.095-.098z"/><polygon fill="#E2E6E8" points="236.419,88.127 238.716,85.823 237.95,85.059 247.907,75.075 248.672,75.838 250.969,73.534 250.204,72.771 260.926,62.018 261.691,62.781 263.988,60.477 263.224,59.714 274.712,48.194 278.552,52.023 198.131,132.66 194.296,128.836 235.653,87.363" opacity=".5"/><polygon fill="#E2E6E8" points="237.083,155.908 237.816,155.19 237.816,155.19"/><path fill="#E2E6E8" d="M239.52 161.193l-4.778 4.674.072.041-95.03 91.785c-11.846 4.913-24.602 5.158-31.125.034l-23.825 23.88-3.83-3.819 13.785-13.825.768.766 1.532-1.536-.768-.766 10.804-10.836c6.523 5.124 18.513 5.646 30.358.733l97.331-94.085c1.611.888 3.181 1.874 4.706 2.954z" opacity=".5"/><rect x="244.637" y="104.037" transform="matrix(-.708 -.706 .706 -.708 449.796 397.256)" fill="#828282" width="124.731" height="3.254"/><rect x="231.618" y="117.094" transform="matrix(-.708 -.706 .706 -.708 418.338 410.366)" fill="#828282" width="124.731" height="3.254"/><rect x="219.365" y="129.383" transform="matrix(-.708 -.706 .706 -.708 388.731 422.706)" fill="#828282" width="124.731" height="3.254"/><g fill="#777"><path d="M133.927 300.625l.333-.37 15.058 15.014-1.532 1.536-15.108-15.064c.431-.347.849-.716 1.249-1.116zM112.254 279.015c-.399.4-.767.82-1.113 1.252l-15.584-15.539 1.532-1.536 15.534 15.489-.369.334z"/></g><g opacity=".5" fill="#777"><path d="M99.452 313.052l-.001.001.096.098-.095-.099z"/><polygon points="185,250.328 188.191,253.648 210.197,230.749 206.889,227.552"/><path d="M99.266 312.926l-.001.001.095.098-.094-.099z"/></g></svg>