<svg xmlns="http://www.w3.org/2000/svg" width="370" height="370" viewBox="-35 -18.99 370 370" enable-background="new -35 -18.99 370 370"><circle fill="#828E9E" cx="149.68" cy="182.358" r="150"/><path fill="#427BC5" d="M31.981 73.07l10.668 5.273 3.351 1.751v210.661c26.936 25.771 63.458 41.604 103.68 41.604 41.552 0 79.156-16.898 106.32-44.194v-207.729l11.234-7.366 1.295-2.427-118.827-65.631-118.872 65.631 1.488 1.375-.337 1.052z"/><path opacity=".2" fill="#2D333B" enable-background="new" d="M150.037 91.868c-50.003 0-90.682 44.669-90.682 99.576s40.68 99.577 90.682 99.577c50.003 0 90.682-44.67 90.682-99.577s-40.679-99.576-90.682-99.576zm0 160.124c-30.404 0-55.14-27.162-55.14-60.548 0-30.691 20.909-56.104 47.903-60.009-.286 6.304-.608 8.92 7.237 8.92 7.844 0 7.522-2.616 7.237-8.92 26.994 3.906 47.903 29.318 47.903 60.009 0 33.386-24.736 60.548-55.14 60.548z"/><ellipse opacity=".2" fill="#2D333B" enable-background="new" cx="85.667" cy="90.811" rx="5.036" ry="6.826"/><path fill="#E9573F" d="M150.037 273.233c-50.003 0-90.682-40.68-90.682-90.683s40.68-90.682 90.682-90.682 90.682 40.68 90.682 90.682-40.679 90.683-90.682 90.683zm0-145.822c-30.404 0-55.14 24.736-55.14 55.14 0 30.405 24.736 55.14 55.14 55.14s55.14-24.736 55.14-55.14c0-30.405-24.736-55.14-55.14-55.14z"/><path fill="#F7F8F9" d="M163 272.394v-36.099c-4 .912-8.357 1.396-12.602 1.396-4.172 0-8.398-.469-12.398-1.351v36.082c4 .534 8.28.812 12.398.812 4.189-.001 8.602-.288 12.602-.84zm-25-179.714v36.082c4-.882 8.225-1.351 12.398-1.351 4.245 0 8.602.483 12.602 1.396v-36.1c-4-.552-8.413-.839-12.602-.839-4.118 0-8.398.278-12.398.812z"/><path fill="#F7F8F9" d="M205.177 182.524c0 4.208-.476 8.497-1.373 12.497h36.09c.543-4 .825-8.344.825-12.497 0-4.155-.282-8.503-.826-12.503h-36.09c.898 3.999 1.374 8.293 1.374 12.503zm-110.279 0c0-4.21.476-8.503 1.374-12.503h-36.09c-.544 4-.826 8.349-.826 12.503 0 4.152.282 8.497.825 12.497h36.09c-.898-4.001-1.373-8.29-1.373-12.497z"/><path fill="#F7F8F9" d="M163 272.245v-36.193c-5 1.064-7.905 1.638-12.5 1.638s-9.5-.574-12.5-1.638v36.193c3 .644 7.972.988 12.5.988s7.5-.344 12.5-.988z"/><path opacity=".1" fill="#2D333B" enable-background="new" d="M201.593 130.994c28.474 28.474 28.474 74.638 0 103.112l12.566 12.566c35.357-35.357 35.357-92.887 0-128.244s-92.887-35.357-128.244 0l12.566 12.566c28.474-28.473 74.639-28.473 103.112 0"/><path opacity=".1" fill="#2D333B" enable-background="new" d="M189.027 221.54c-21.499 21.499-56.48 21.499-77.98 0s-21.499-56.481 0-77.98l-12.566-12.566c-28.474 28.474-28.474 74.638 0 103.112s74.638 28.474 103.112 0l-12.566-12.566z"/><path fill="#B3B9BC" d="M157.171 124.422c0 8.274 2.14 11.602-7.134 11.602s-7.134-3.328-7.134-11.602 3.194-18.359 7.134-18.359 7.134 10.085 7.134 18.359z"/><polygon fill="#427BC5" points="31.981,73.07 28.68,67.216 149.702,0 270.68,67.216 267.378,73.07 149.702,7.945"/><circle fill="#2D333B" cx="85.667" cy="89.02" r="5.036"/><ellipse opacity=".2" fill="#2D333B" enable-background="new" cx="214.584" cy="90.811" rx="5.036" ry="6.826"/><circle fill="#2D333B" cx="214.584" cy="89.02" r="5.036"/><path opacity=".25" fill="#2D333B" enable-background="new" d="M260.754 283.168l-4.245-210.584-10.48 13.235.342 211.206c5.093-4.299 9.903-8.924 14.383-13.857z"/><polygon opacity=".4" fill="#2D333B" enable-background="new" points="256,72.945 256,80.436 267.234,73.07 149.607,7.842 31.945,73.07 44.671,79.66 45.885,72.289 56,85.456 149.743,31.79 245.903,86.104"/><polygon opacity=".15" fill="#2D333B" enable-background="new" points="56,279.106 246.596,86.104 150.549,31.79 56,85.456"/><path fill="#427BC5" d="M259.114 283.858c1.323-1.441 2.618-2.907 3.886-4.398v-203.33l-8-3.185v215.219c1.37-1.376 2.711-2.781 4.025-4.211l.089-.095z"/><path opacity=".25" fill="#2D333B" enable-background="new" d="M56 299.502v-214.046l-9.708-12.879-4.852 213.621c4.554 4.746 9.42 9.188 14.56 13.304z"/><path fill="#427BC5" d="M46 290.754v-218.465l-7 3.184v208.121c2.254 2.463 4.588 4.852 7 7.16z"/></svg>