<svg xmlns="http://www.w3.org/2000/svg" xmlns:xlink="http://www.w3.org/1999/xlink" width="370" height="370"><circle fill="#64992A" cx="90" cy="200.5" r="8.5"/><circle fill="#64992A" cx="144" cy="224.5" r="8.5"/><circle fill="#64992A" cx="197" cy="170.5" r="8.5"/><circle fill="#64992A" cx="251" cy="198.5" r="8.5"/><circle fill="#828E9E" cx="185" cy="185" r="150"/><defs><circle id="a" cx="185" cy="185" r="150"/></defs><clipPath id="b"><use xlink:href="#a" overflow="visible"/></clipPath><g clip-path="url(#b)"><defs><path id="c" d="M305 69.857c0-2.683-2.175-4.857-4.857-4.857h-721.285c-2.683 0-4.857 2.175-4.857 4.857v290.285c0 2.683 2.175 4.857 4.857 4.857h721.285c2.683 0 4.857-2.175 4.857-4.857v-290.285z"/></defs><clipPath id="d"><use xlink:href="#c" overflow="visible"/></clipPath><path clip-path="url(#d)" fill="#2D333B" d="M-7 65h307.143c2.683 0 4.857 2.175 4.857 4.857v290.285c0 2.683-2.175 4.857-4.857 4.857h-307.143v-299.999z"/><polygon clip-path="url(#d)" fill="#1D2229" points="343.333,340 16,339.333 89.5,184.25 144,255.625 196.5,127.562 251,199.031 342,-50.667"/><g opacity=".2" clip-path="url(#d)" stroke="#B3B9BC" stroke-linecap="round" stroke-linejoin="round" stroke-miterlimit="10" fill="none"><line x1="196.5" y1="65" x2="196.5" y2="377"/><line x1="251.5" y1="65" x2="251.5" y2="377"/><line x1="143.5" y1="65" x2="143.5" y2="377"/><line x1="89.5" y1="65" x2="89.5" y2="377"/><line x1="327" y1="172.5" x2="15" y2="172.5"/><line x1="327" y1="227.5" x2="15" y2="227.5"/><line x1="326" y1="119.5" x2="14" y2="119.5"/><line x1="327" y1="280.5" x2="15" y2="280.5"/></g></g><path fill="#7EC135" d="M316.819 23.026l-5.639-2.053-44.18 121.322-16.941 46.522-54.347-71.3-52.5 128-54.334-71.282-37.131 79.69c1.142 2.204 2.338 4.374 3.585 6.512l34.793-74.671 54.666 71.718 52.5-128 54.653 71.7 15.056-41.352 49.819-136.806z"/><ellipse opacity=".2" cx="143.5" cy="254.5" rx="10" ry="12.5"/><circle fill="#7EC135" cx="143.5" cy="252" r="10"/><ellipse opacity=".2" cx="89.5" cy="182.5" rx="10" ry="12.5"/><circle fill="#7EC135" cx="89.5" cy="180" r="10"/><ellipse opacity=".2" cx="197.5" cy="125.5" rx="10" ry="12.5"/><circle fill="#7EC135" cx="197.5" cy="123" r="10"/><ellipse opacity=".2" cx="251.5" cy="197.5" rx="10" ry="12.5"/><circle fill="#7EC135" cx="251.5" cy="195" r="10"/><path opacity=".2" d="M311.181 20.974l-4.576 12.565c1.405 1.676 3.198 2.839 5.196 3.268l5.018-13.78-5.638-2.053z"/><circle fill="#7EC135" cx="313.5" cy="22" r="10"/></svg>