<svg xmlns="http://www.w3.org/2000/svg" width="370" height="370"><circle fill="#828E9E" cx="184.825" cy="184.829" r="150"/><path fill="#2D333B" d="M139.831 187.77c8.799-12.32 25.646-20.657 44.994-20.657s36.196 8.337 44.994 20.657c7.221-7.346 11.514-16.51 11.514-26.453 0-24.156-25.3-43.739-56.508-43.739s-56.508 19.582-56.508 43.739c-.001 9.943 4.293 19.106 11.514 26.453z"/><path opacity=".15" fill="#2D333B" enable-background="new" d="M290.253 145.165c-12.036-39.124-66.73-68.665-132.42-68.665-39.061 0-74.443 10.452-99.156 27.146-15.091 23.401-23.851 51.268-23.851 81.183 0 80.231 62.991 145.75 142.215 149.801 2.185-2.177 7.049-4.332 8.96-7.263 14.601-53.667 106.727-72.205 106.727-119.097-.001-12.994 4.548-48.855-2.475-63.105zm-75.651 41.786l-.368.309.414-.356-.046.047z"/><path fill="#6C6D6D" d="M288.071 137.972c-19.106-22.177-62.81-24.504-100.1-24.609 2.707.157 5.408.422 8.103.722 3.27.47 6.513 1.154 9.7 2.022 2.923.851 5.837 1.763 8.634 2.971 2.92 1.286 5.832 2.629 8.548 4.312 2.785 1.684 5.437 3.586 7.908 5.704 1.744 1.432 3.366 3.003 4.864 4.69 2.511 2.755 4.761 5.773 6.503 9.074 2.176 3.992 3.596 8.378 4.248 12.875.411 2.279.586 4.593.53 6.908-.306 4.126-1.046 8.243-2.495 12.129-.713 2.173-1.705 4.239-2.852 6.214 2.713 5.354 4.219 11.178 4.219 17.279 0 26.093-27.255 47.25-60.844 47.25s-60.812-21.157-60.812-47.25c0-6.104 1.506-11.931 4.218-17.287-.808-1.437-1.559-2.906-2.159-4.442-2.025-4.847-3.165-10.086-3.144-15.346.031-2.587.341-5.165.859-7.698.859-3.871 2.302-7.604 4.226-11.068 1.706-3.147 3.785-6.094 6.212-8.724 2.307-2.383 4.685-4.725 7.356-6.702 1.601-1.225 3.278-2.346 4.988-3.415 2.503-1.478 5.077-2.83 7.734-4.011 3.419-1.524 7.003-2.64 10.583-3.718 1.742-.464 3.499-.897 5.28-1.188 2.587-.493 5.209-.739 7.818-1.084l1.694-.174.364-.04c-40.986.147-83.642 2.603-101.08 28.991-7.674 11.613-3.419 51.953-3.419 65.906 0 46.895 48.914 84.906 109.281 84.906s108.302-38.011 108.302-84.906c0-17.449 6.355-56.802-5.267-70.291z"/><path fill="#818282" d="M293.319 149.82c.667 3.786 1.029 7.646 1.029 11.574 0 31.646-22.301 59.234-55.348 73.837v-.062c0 .012-.248.193-.927.53l-.073.088v.011c-4 1.905-17.972 8.066-29.585 17.236-12.658 9.996-22.415 27.569-22.415 27.569v46.764c.538-.079 13.104-20.295 27.385-31.599 7.758-6.141 17.133-10.016 21.517-12.056l-.002.041c34.881-14.109 58.439-42.614 58.439-75.488-.001-13.691 3.907-40.858-.02-58.445z"/><path fill="#777" d="M184.825 117.578c31.209 0 56.508 19.582 56.508 43.739s-25.3 43.739-56.508 43.739-56.508-19.582-56.508-43.739 25.299-43.739 56.508-43.739m0-6c-16.416 0-31.911 4.995-43.63 14.066-12.174 9.423-18.878 22.092-18.878 35.673s6.704 26.25 18.878 35.673c11.719 9.071 27.214 14.066 43.63 14.066s31.911-4.995 43.63-14.066c12.174-9.423 18.878-22.092 18.878-35.673s-6.704-26.25-18.878-35.673c-11.719-9.071-27.214-14.066-43.63-14.066z"/><path fill="#B3B9BC" d="M185.036 76.488c-60.367 0-109.281 38.011-109.281 84.906s48.914 84.906 109.281 84.906c16.098 0 31.383-2.704 45.145-7.558-6.207 3.087-14.865 7.811-22.575 13.899-12.592 9.943-22.444 27.542-22.543 27.719l-.063.114v46.526h1v-46.266c.858-1.514 10.312-17.9 22.225-27.308 10.532-8.316 22.904-14.097 28.188-16.565.446-.208 3.966-2.154 5.061-2.741 31.687-14.867 52.876-41.873 52.876-72.727-.002-46.894-48.947-84.905-109.314-84.905zm43.419 120.501c-11.719 9.071-27.214 14.066-43.63 14.066s-31.911-4.995-43.63-14.066c-12.174-9.423-18.878-22.092-18.878-35.673s6.704-26.25 18.878-35.673c11.719-9.071 27.214-14.066 43.63-14.066s31.911 4.995 43.63 14.066c12.174 9.423 18.878 22.092 18.878 35.673s-6.704 26.25-18.878 35.673z"/></svg>