<svg xmlns="http://www.w3.org/2000/svg" xmlns:xlink="http://www.w3.org/1999/xlink" width="370" height="370"><defs><circle id="a" cx="184.637" cy="186.697" r="150"/></defs><clipPath id="b"><use xlink:href="#a" overflow="visible"/></clipPath><circle clip-path="url(#b)" fill="#7E5846" cx="184.637" cy="186.697" r="150"/><defs><circle id="c" cx="184.637" cy="186.697" r="150"/></defs><clipPath id="d"><use xlink:href="#c" overflow="visible"/></clipPath><g opacity=".2" clip-path="url(#d)"><path fill="#2D333B" d="M338.702 253.842l-.009-.154-27.938-2.874-12.578 5.353-118.092 6.821-7.856-15.926-2.71.557c.067 1.164-.159 2.291-.626 3.33-1.4 3.12-4.964 5.461-9.254 5.709-.503.029-.996.018-1.483-.01l-.317-.021c-.477-.04-.947-.101-1.402-.193l-.139-.033c-.436-.094-.861-.211-1.272-.349l-.185-.06c-.443-.157-.87-.338-1.278-.543l-.094-.05c-.848-.438-1.614-.974-2.267-1.595l-.021-.02c-.665-.637-1.215-1.358-1.621-2.146-.449-.872-.733-1.82-.791-2.826l-92.424 5.328c-.614.12-1.215.273-1.808.444l-.64.204c-.367.118-.732.242-1.09.378-.255.097-.507.199-.758.305-.307.13-.608.269-.908.412-.259.124-.518.245-.771.378l-.149.073.004.009c-7.498 4.021-12.422 12.218-11.901 21.239.653 11.303 9.622 20.363 20.6 21.218l92.424-5.328c-.06-1.032.123-2.029.487-2.967.319-.823.787-1.596 1.379-2.299l.007-.008c.296-.35.622-.683.976-.995l.002-.001c.342-.301.712-.579 1.103-.839l.069-.047c.38-.248.783-.473 1.204-.678l.188-.086c.393-.183.8-.347 1.222-.489l.118-.042c.439-.142.897-.255 1.363-.348l.319-.277c.476-.083.96-.397 1.458-.397h.002c1.788 0 3.492.387 4.998.952.301.113.595.347.879.483.569.271 1.103.642 1.594.996s.94.775 1.339 1.203c.489.524.891 1.117 1.217 1.732.471.891.768 1.87.828 2.904l9.646-.553-.921-15.958 118.294-6.81 13.105 3.824 27.411-6.163-.736-12.746-.197-.021z"/><path fill="#2D333B" d="M44.414 151.76l-.094.28c1.982.778 4.092 1.28 6.284 1.451l82.188-4.737-.035-.308 10.273-.592c-.064-1.107.145-2.177.566-3.173.12-.285.256-.564.411-.835l.264-.419c.136-.208.281-.411.437-.609l.316-.386c.225-.255.465-.502.722-.736l.405-.337c.18-.147.367-.289.56-.426l.459-.317c.3-.189.613-.365.938-.528l.53-.244c.235-.104.477-.199.722-.289l.539-.191c.365-.113.742-.207 1.126-.288l.535-.098c.363-.06.731-.106 1.107-.135l.257-.025c1.066-.062 2.102.011 3.085.199 4.279.825 7.53 3.85 7.749 7.636l-.019-.327.04.33 9.646-.557-.921-15.96 151.895-8.754 6.548-6.756-7.278-5.99-151.901 8.754-.921-15.951-9.645.558-.001.332-.019-.336c.269 4.657-4.16 8.709-9.88 9.04-.514.03-1.019.02-1.516-.01l-.255-.017c-.482-.039-.955-.103-1.414-.195l-.195-.046c-.4-.087-.788-.196-1.167-.32l-.284-.093c-.405-.145-.796-.312-1.172-.498l-.28-.149c-.318-.169-.623-.352-.915-.549l-.21-.137c-.326-.232-.629-.485-.916-.749l-.246-.238c-.255-.254-.495-.518-.712-.796l-.131-.171c-.207-.281-.388-.576-.555-.878-.503-.918-.919-1.925-.981-2.996l-10.353.59v-.004l-82.093 4.737c-.654.128-1.243.295-1.875.481l-.128.049c-.561.169-1.098.361-1.639.573l-.309.127c-.513.21-1.014.439-1.507.686l-.222.11-.344.169.009.022c-7.489 4.024-12.406 12.216-11.885 21.23.524 9.08 6.42 16.701 14.407 19.796z"/><path fill="#2D333B" d="M369.131 196.2c-5.723.849-11.105 1.679-16.496 2.441-8.356 1.181-11.658-.576-13.789-8.752-.244-.936-.418-1.902-.543-2.882-.091-.814-.154-1.572-.193-2.294-.015-.318-.032-.635-.038-.955l-.004-.139c-.023-1.523.054-3.054.189-4.56.055-.562.116-1.127.186-1.712.616-5.134 3.432-8.333 9.366-8.276 6.146.059 12.299-.688 18.45-1.075l.476-1.695-.002-.002.001-.004c-2.914-4.803-12.197-9.555-16.275-11.846-8.247-4.633-16.608-4.372-24.174 1.089-4.541 3.278-8.781 7.378-12.048 11.908-3.597 4.988-8.021 7.077-13.787 7.677-9.515.99-221.82 13.502-235.241 13.469-7.12-.018-12.708-4.318-18.181-8.74-20.004-16.161-34.2-6.372-47.207 11.264-.209.284-.126.783-.003 1.48l.077.442c.052.31.101.651.133 1.023 5.723-.849 11.105-1.679 16.496-2.441 8.356-1.181 11.661.628 13.792 8.804l.123.515.013.162c.287 1.32.48 2.9.553 3.9h.004c.194 3 .029 5.407-.29 8.067-.616 5.134-3.434 8.256-9.367 8.199-6.146-.059-12.3.649-18.45 1.036l-.476 1.676c2.914 4.803 12.197 9.549 16.275 11.84 8.248 4.633 16.608 4.369 24.174-1.092 4.541-3.278 8.781-7.38 12.049-11.909 3.597-4.988 8.021-7.078 13.787-7.678 9.515-.99 221.82-13.502 235.241-13.469 7.12.018 12.708 4.318 18.181 8.74 20.004 16.161 34.2 6.372 47.207-11.264.333-.456-.081-1.463-.209-2.947z"/></g><defs><circle id="e" cx="184.637" cy="186.697" r="150"/></defs><clipPath id="f"><use xlink:href="#e" overflow="visible"/></clipPath><g stroke="#000" stroke-linecap="round" stroke-linejoin="round" stroke-miterlimit="10" fill="none" opacity=".1" clip-path="url(#f)"><path d="M226.949 153.536c-6.471-7.77-10.559-16.376-12.636-25.888-1.102-5.045-2.401-10.276-8.382-13.073-7.174-3.354-10.334 1.418-14.271 4.944-6.757 6.05-10.93 14.241-17.004 20.564-21.627 22.517-46.566 41.086-78.385 50.326-1.784.518-3.694 1.249-5.465 1.943-8.168 3.203-8.999 10.738-1.354 15.604 6.48 4.125 14.065 6.052 21.441 8.495 28.713 9.51 57.503 19.252 81.413 39.273.436.365 1.451.086 2.352.112 3.028-1.706 2.154-4.879 1.582-7.388-5.473-23.993 4.11-40.004 25.222-50.475 6.874-3.409 13.276-7.721 19.408-12.2 5.842-4.267 7.242-10.074 2.516-16.866l-16.437-15.371zM343.67 209.033c-27.583.437-55.244-6.192-82.826-5.57-18.395.415-35.236 3.962-48.275 16.617-6.668 6.472-7.356 13.928-4.23 22.297 8.277 22.159 16.093 44.342 18.118 67.581.838 9.615 2.445 19.228 3.703 28.842"/><path d="M23.195 180.678c27.393 1.693 54.018-.637 79.93-7.221 15.999-4.066 28.872-12.9 41.066-22.409 37.917-29.57 59.247-67.743 57.388-117.43"/><path d="M24.221 199.863c6.329.182 12.661.085 18.988.624 6.22.53 12.787 1.646 17.003 6.863 8.455 10.463 19.848 13.125 32.106 14.746 33.966 4.492 64.647 17.896 90.06 41.079 22.541 20.563 34.169 46.345 35.497 75.271"/><path d="M189.747 146.083c-4.937-1.073-8.454 2.989-10.672 6.179-14.001 20.138-36.301 31.035-55.695 45.418-1.164 6.636 5.419 9.346 9.527 10.287 18.174 4.165 35.582 10.213 51.454 19.313 5.094-2.92 2.796-7.678 3.2-11.079 1.089-9.149 4.745-16.099 12.623-20.868 1.092-.661 2.176-1.333 3.236-2.036 15.648-10.383 16.381-10.332 2.44-24.802-3.72-3.862-6.291-8.503-7.554-13.417-.982-3.83-3.622-7.922-8.559-8.995zM213.865 33.97c1.31 28.722 4.616 57.166 13.213 85.58 9.749 32.221 32.47 50.574 63.763 62.657 17.248 6.66 34.383 7.158 51.803 7.64"/><path d="M344.183 218.625c-26.486.209-53.306-2.144-78.984 4.054-11.319 2.732-20.728 8.211-29.276 15.192-6.488 5.299-7.896 12.308-4.428 20.058 11.827 26.43 16.496 53.763 18.771 81.447"/><path d="M22.169 161.493c21.41.714 44.004 2.389 61.723-8.24 30.482-18.283 66.432-30.377 85.204-63.001 10.191-17.711 12.906-36.891 12.377-57.212"/><path d="M24.733 209.456c16.095 1.135 29.499 8.611 41.09 19.361 8.324 7.721 18.374 10.446 28.653 12.331 22.463 4.119 44.523 10.258 63.513 23.445 26.279 18.248 38.345 43.706 39.781 73.276"/><path d="M21.144 142.308c16.81.542 33.212-.342 48.812-5.91 10.03-3.579 17.816-9.905 23.201-17.779 6.756-9.878 15.866-15.563 27.175-19.235 32.858-10.669 43.637-34.75 41.036-66.921"/><path d="M233.971 34.548c.939 22.481 2.93 44.869 7.907 67.295 7.18 32.354 50.436 71.027 89.695 68.572 3.305-.207 6.696.152 10.046.248"/><path d="M26.363 219.08c8.874 2.989 16.29 8.201 23.106 14.471 6.51 5.989 13.48 11.534 19.82 17.675 11.072 10.725 24.795 7.297 37.38 9.426 39.485 6.68 61.981 25.165 69.036 61.692.957 4.953 1.32 9.965 1.958 14.949"/><path d="M344.696 228.218c-31.32-.201-58.888 8.982-83.329 25.376-9.664 6.482-10.763 12.377-5.471 23.134 10.046 20.419 12.137 41.822 14.475 63.227"/><path d="M26.329 239.299c7.821 3.849 13.459 9.116 19.262 16.113 13.647 16.458 34.092 22.088 54.385 26.462 11.119 2.396 22.856 3.348 32.762 9.574 18 11.313 21.091 23.67 12.535 44.914"/><path d="M345.778 248.469c-7.838-.58-15.701-1.54-23.508-1.665-20.333-.324-31.086 8.65-35.421 27.619-4.918 21.522-7.519 43.346-6.425 65.82"/><path d="M19.833 117.794c12.454 5.453 22.959 2.228 35.449-2.426 7.149-2.664 14.104-6.957 19.254-12.218 5.207-5.319 10.511-11.74 8.093-20.801-4.578-17.156 4.912-28.127 17.266-36.399 6.347-4.25 10.272-10.073 15.677-14.8"/><path d="M27.126 254.221c13.863 16.957 32.581 26.165 53.056 32.289 6.232 1.864 12.766 2.48 19.132 3.857 27.69 5.991 39.098 20.014 32.554 45.612"/><path d="M264.128 35.413c3.301 23.242 5.987 46.462 20.205 67.707 9.911 14.81 20.002 28.459 38.69 34.303 5.75 1.798 11.192 3.23 17 3.396"/><path d="M346.576 263.39c-29.958-10.9-50.663-6.411-55.695 21.817-3.172 17.792-5.616 35.679-1.578 54.226"/><path d="M27.81 267.011c5.49 14.08 19.644 16.591 31.356 22.052 8.162 3.806 17.156 4.593 25.895 6.352 22.537 4.537 36.577 14.948 33.404 40.179"/><path d="M20.631 132.716c20.819-.474 38.544-7.91 54.753-18.663 10.806-7.168 14.988-17.889 13.796-30.443-.892-9.389 1.749-16.781 7.883-23.194"/><path d="M347.26 276.18c-10.306-6.67-21.615-6.301-32.663-6.122-9.4.152-13.664 7.027-15.799 14.361-4.268 14.663-5.117 30.068-3.002 45.599.48 3.528.591 7.157 1.383 10.705"/><path d="M273.064 35.67c2.829 16.544 7.468 32.545 14.547 48.418 10.259 23.004 26.703 37.787 51.72 43.982.083.021.046.669.065 1.024"/><path d="M18.466 92.214c13.786 3.763 26.683 5.828 39.114-2.831 9.299-6.478 12.524-14.056 9.477-24.478-3.3-11.29-.798-19.015 9.831-24.477 4.469-2.296 9.524-5.028 11.877-10.048"/><path d="M348.057 291.102c-9.144-10.751-21.147-10.887-32.792-9.225-8.82 1.258-9.881 9.384-11.449 16.464-3.126 14.115-.39 28.372 2.298 42.639"/><path d="M28.608 281.933c10.041 11.562 23.717 15.307 37.775 18.085 12.147 2.401 24.457 3.997 33.189 14.769 5.149 6.352 6.314 11.648 3.256 20.357"/><path d="M282.028 36.459c4.517 17.744 9.312 35.366 20.536 51.165 9.072 12.769 20.756 21.919 36.034 26.549"/><path d="M17.782 79.424c12.491 3.468 24.753 6.908 35.683-2.051 5.669-4.647 7.586-10.473 5.479-16.937-4.108-12.607-.603-21.045 11.006-26.436 1.451-.674 2.138-2.68 3.179-4.069"/><path d="M19.15 105.004c21.665 7.169 44.821-.307 54.853-17.564 3.512-6.042 1.527-12.756 1.012-19.139-.773-9.585.367-17.101 9.924-22.385 6.607-3.653 13.388-8.177 17.231-15.151"/><path d="M178.053 177.674c-10.924 4.435-18.716 11.677-23.047 22.338 8.938 4.626 20.655 2.387 26.054-5.315 3.982-5.681 5.938-12.205-1.947-18.057"/><path d="M29.292 294.723c12.065 9.89 26.718 11.028 40.887 13.995 13.883 2.908 24.228 16.232 19.246 26.042"/><path d="M290.964 36.716c5.891 19.038 12.459 37.665 28.337 52.544 5.609 5.257 12.897 7.386 18.614 12.124"/><path d="M349.311 314.551c-2.792-3.727-5.335-7.327-10.479-8.927-12.655-3.936-19.684-.134-19.22 12.335.29 7.794 2.838 15.686 4.373 23.535"/><path d="M315.05 341.236c-3.201-9.893-3.396-19.9-3.851-29.908-.322-7.084-.752-14.716 6.971-17.694 8.125-3.133 16.788-.839 24.576 3.817 2.421 1.447 4.02 4.255 5.996 6.44"/><path d="M299.899 36.972c6.999 20.553 16.391 39.636 37.332 51.621"/><path d="M29.861 305.381c8.066 8.007 18.914 6.424 28.433 9.095 12.504 3.509 17.445 7.772 18.843 19.931"/><path d="M16.415 53.844c2.663 1.141 5.38 2.168 7.979 3.445 5.56 2.732 10.267 1.013 14.35-1.822 4.574-3.176 2.93-9.283 1.23-12.478-4.551-8.554-2.172-12.268 6.348-13.828"/><path d="M254.076 35.125c1.445 15.645.694 31.245 3.52 46.938 1.951 10.839 4.532 20.77 13.695 29.349 6.063 5.676 9.891 13.529 14.72 20.408l7.044 6.587c14.373 10.97 30.71 13.124 47.539 13.071"/><path d="M349.881 325.209c-2.367-2.551-4.372-5.604-7.175-7.55-6.047-4.198-13.066-.925-12.923 5.911.128 6.097-.079 12.299 3.138 18.18"/><path d="M308.835 37.229c5.688 15.022 13.382 28.821 27.713 38.575"/><path d="M16.984 64.502c7.136 6.808 15.451 6.844 23.647 4.831 8-1.966 12.191-7.792 8.993-15.518-5.126-12.385-1.033-19.609 10.101-24.268"/><path d="M30.431 316.039c5.735 3.175 11.881 3.172 18.04 3.8 10.401 1.06 13.844 4.522 15.264 14.183"/><path d="M15.731 41.054c3.881 4.256 8.924 6.709 13.425 3.404 6.402-4.701-1.116-10.147-1.793-15.308"/><path d="M30.944 325.632c7.067.843 14.972-1.815 20.73 5.49-1.268 4.243-4.717 1.747-6.928 2.356"/><path d="M316.625 36.92c4.852 9.679 11.274 18.371 19.239 26.093"/><path d="M349.721 332.654l-6.285-6.51c-6.321 5.024-1.539 10.838-1.58 15.863"/></g><defs><circle id="g" cx="184.637" cy="186.697" r="150"/></defs><clipPath><use xlink:href="#g" overflow="visible"/></clipPath><defs><circle id="h" cx="184.637" cy="186.697" r="150"/></defs><clipPath id="i"><use xlink:href="#h" overflow="visible"/></clipPath><circle clip-path="url(#i)" cx="184.637" cy="186.697" r="150" fill="none"/><polygon fill="#828E9E" points="294.766,264.372 307.631,268.939 335.349,264.353 335.343,251.586 307.621,247.026 294.76,251.605 168.312,251.646 168.319,264.413"/><path fill="#DA4453" d="M156.219 244.131c-5.739.003-10.4-3.786-10.403-8.455l-92.577.036c-10.901 1.496-19.338 11.057-19.332 22.375.005 11.322 8.442 20.88 19.353 22.361l92.577-.036c-.002-4.669 4.651-8.453 10.395-8.455 5.73-.003 10.387 3.777 10.389 8.446l9.662-.005-.021-44.731-9.662.005c.002 4.663-4.651 8.456-10.381 8.459z"/><rect x="169.779" y="273.499" transform="matrix(0 1 -1 0 449.696 97.092)" fill="#F7F8F9" width="13" height=".001"/><path opacity=".1" fill="#2D333B" enable-background="new" d="M129.268 242.285c3.489 0 6.318-2.773 6.318-6.262l-.017-.342-82.33.031c-2.197.302-4.292.936-6.24 1.841.688 2.72 3.164 4.676 6.121 4.676l76.148.056z"/><path opacity=".1" fill="#2D333B" enable-background="new" d="M135.585 280.299c-.014-3.477-2.836-6.299-6.317-6.299h-76.147c-2.859 0-5.272 1.943-6.051 4.522 1.934.89 4.012 1.512 6.191 1.808l82.324-.031z"/><path opacity=".1" fill="#2D333B" enable-background="new" d="M53.121 264.439c-3.489 0-6.318-2.23-6.318-5.719 0-3.489 2.829-5.719 6.318-5.719h76.148c3.489 0 6.318 2.23 6.318 5.719 0 3.489-2.829 6.019-6.318 6.019l-76.148-.3z"/><path opacity=".1" fill="#2D333B" enable-background="new" d="M156.219 244.131c-4.5.002-8.327-2.331-9.775-5.588-.509 3.051-1.795 5.84-3.652 8.145 2.436 3.046 3.899 6.926 3.899 11.148 0 4.189-1.464 8.039-3.899 11.061 1.932 2.416 3.237 5.361 3.701 8.581 1.467-3.22 5.267-5.519 9.739-5.521 5.73-.003 10.387 3.777 10.389 8.446l-.021-44.733c.002 4.665-4.651 8.458-10.381 8.461z"/><polygon opacity=".2" fill="#F7F8F9" points="335.268,251.409 335,251.554 335,251.4 307.348,246.933 294.522,251.558 176.271,251.618 176.272,254.618 294.561,254.558 307.35,249.933 335,254.4 335,254.554 335.268,254.409 335.348,264 335.349,264"/><path opacity=".2" fill="#F7F8F9" d="M166.6 235.67l.001 3.009.001-.009 9.652-.005v-3l-9.658.005"/><polygon opacity=".2" fill="#F7F8F9" points="176.254,238.665 176.252,251.618 176.271,251.618 176.264,238.665"/><polygon opacity=".2" fill="#F7F8F9" points="145.817,235.678 145.817,235.676 145.816,235.676"/><path opacity=".2" fill="#F7F8F9" d="M46.999 237.553l.003.01c-7.716 3.586-13.1 11.488-13.096 20.524 0 .444.036.88.062 1.318.618-8.326 5.802-15.481 13.035-18.842l-.003-.01.153-.065c.26-.119.526-.225.792-.334l.349-.135c-.602-.704-1.059-1.535-1.295-2.466z"/><path opacity=".2" fill="#F7F8F9" d="M135.569 235.681l.017.342c0 .955-.218 1.852-.597 2.657l10.723-.004c.002-1.007-.075-1.925.104-3l-10.247.005z"/><polygon fill="#828E9E" points="328.444,118.496 335.367,112.125 328.444,105.728 168.333,105.789 168.339,118.556"/><path fill="#4A89DC" d="M156.24 98.273c-5.739.003-10.4-3.786-10.403-8.455l-92.577.036c-10.901 1.496-19.338 11.057-19.332 22.375.005 11.322 8.442 20.88 19.353 22.361l92.577-.036c-.002-4.669 4.651-8.453 10.395-8.455 5.73-.003 10.387 3.777 10.389 8.446l9.662-.005-.021-44.731-9.683.005c.002 4.663-4.631 8.456-10.36 8.459z"/><g fill="#2D333B"><path opacity=".1" enable-background="new" d="M129.268 96.422c3.489 0 6.318-2.773 6.318-6.262l-.017-.342-82.33.031c-2.197.302-4.292.936-6.24 1.841.688 2.72 3.164 4.676 6.121 4.676l76.148.056z"/><path opacity=".1" enable-background="new" d="M135.585 134.867c-.014-3.477-2.836-5.868-6.317-5.868h-76.147c-2.859 0-5.272 1.513-6.051 4.092 1.934.89 4.012 1.512 6.191 1.808l82.324-.032z"/><path opacity=".1" enable-background="new" d="M53.121 118.577c-3.489 0-6.318-2.8-6.318-6.289s2.829-6.289 6.318-6.289h76.148c3.489 0 6.318 2.8 6.318 6.289s-2.829 6.303-6.318 6.303l-76.148-.014z"/><path opacity=".1" enable-background="new" d="M156.219 98.268c-4.5.002-8.327-2.331-9.775-5.588-.509 3.051-1.795 5.84-3.652 8.145 2.436 3.046 3.899 6.926 3.899 11.148 0 4.189-1.464 8.039-3.899 11.061 1.932 2.416 3.237 5.361 3.701 8.581 1.467-3.22 5.267-5.519 9.739-5.521 5.73-.003 10.387 3.777 10.389 8.446l-.021-44.732c.002 4.665-4.651 8.458-10.381 8.46z"/></g><path fill="#777" d="M326.958 113.972c-1.601 0-2.898-.819-2.898-1.83s1.298-1.83 2.898-1.83l6.579 1.83s-4.979 1.83-6.579 1.83z"/><g opacity=".2" fill="#F7F8F9"><path d="M47.007 91.714c-7.706 3.59-13.082 11.487-13.078 20.515 0 .497.023.988.056 1.478.561-8.386 5.752-15.607 13.022-18.993l-.008-.022.354-.149.23-.097.72-.278c-.602-.7-1.057-1.528-1.296-2.454z"/><polygon points="328.449,105.728 176.348,105.785 176.34,108.785 328.468,108.728 335.379,112.124"/></g><path opacity=".2" fill="#F7F8F9" d="M146.526 92.82c-.438-.934-.688-1.942-.689-3l-9.837.003v-.001h-.416l.002.338c0 .955-.218 1.854-.598 2.659h1.012v.004l10.526-.003z"/><path fill="#828E9E" d="M40.899 215.556c4.721-3.013 9.189-6.864 12.709-11.2 3.877-4.774 8.412-6.607 14.203-6.877 9.556-.445 222.229-.8 235.626 0 7.108.425 12.44 5.038 17.652 9.765 19.047 17.278 33.779 8.317 47.774-8.547.36-.434.005-1.462-.038-2.952-5.762.521-11.183 1.042-16.609 1.494-8.409.701-11.606-1.241-13.266-9.525-.808-4.032-.418-8.489.315-12.596.909-5.09 3.903-8.097 9.824-7.701 6.133.41 12.318.03 18.481-.005l.572-1.658c-2.634-4.961-11.631-10.237-15.572-12.757-7.969-5.097-16.331-5.314-24.197-.295-4.721 3.013-9.189 6.864-12.709 11.2-3.877 4.774-8.412 6.607-14.203 6.877-9.556.445-222.229.8-235.626 0-7.108-.425-12.44-5.038-17.652-9.765-19.047-17.278-33.779-8.317-47.774 8.547-.36.434-.005 1.462.038 2.952 5.762-.521 11.183-1.042 16.609-1.494 8.41-.701 11.606 1.241 13.266 9.525.808 4.032.418 8.489-.315 12.596-.909 5.09-3.903 8.097-9.824 7.701-6.133-.41-12.318-.03-18.481.005l-.572 1.658c2.634 4.961 11.631 10.237 15.572 12.757 7.97 5.097 16.331 5.314 24.197.295z"/><path opacity=".2" fill="#E2E6E8" enable-background="new" d="M338.582 185c-.236-4 .119-6.66.685-9.83.909-5.091 3.903-8.123 9.824-7.728 6.133.41 12.318.016 18.481-.018l.572-1.665c-2.634-4.961-11.631-10.24-15.572-12.76-7.969-5.097-16.331-5.316-24.197-.296-4.721 3.013-9.189 6.863-12.709 11.199-3.877 4.774-8.412 6.607-14.203 6.876-9.556.445-222.229.8-235.626 0-7.108-.425-12.44-5.038-17.652-9.766-19.047-17.278-33.779-8.317-47.774 8.547-.36.434-.005 1.462.038 2.952 5.762-.521 11.183-1.042 16.609-1.494 8.41-.701 11.606 1.293 13.266 9.578.282 1.409.411 3.405.438 4.405h307.82z"/><path fill="#828E9E" d="M52.265 182.32c-.008-1.416-1.081-2.274-2.496-2.274l-.018-.046h-8.526c-1.38 0-2.264 1.291-2.15 2.629l.032.292c.054.653.359 1.245.857 1.667.226.192.481.329.756.426l.003.531c-.849.398-1.414 1.252-1.41 2.268l.002.294c.008 1.415 1.081 2.482 2.496 2.482l3.321-.018c.294-.002.57-.061.832-.15l.185.075c.302.13.647.202.993.202.691 0 1.351-.3 1.813-.822.163-.185.3-.394.408-.623l2.55-5.084c.236-.439.358-.942.355-1.457l-.003-.392z"/><path fill="#F7F8F9" d="M45.13 187.284l-.818-.036-.028-5.122c-.001-.157-.044-.28-.13-.366-.086-.086-.207-.13-.361-.129l-.697.004c-.043 0-.17.005-.403.041l-1.189.167c-.305.051-.461.247-.436.548l.03.299c.013.157.067.277.16.356.093.079.22.113.381.099l1.071-.114.023 4.224-.939.047c-.305.014-.482.197-.48.5l.002.292c.002.316.184.496.5.495l3.306-.018c.168-.001.296-.051.382-.148.076-.086.114-.204.113-.352l-.002-.292c-.002-.304-.179-.484-.485-.495z"/><path fill="#F7F8F9" d="M49.764 181.673l-3.626.02c-.302.002-.484.182-.495.484l-.026.52c-.005.165.035.293.12.38.084.086.209.13.37.129l2.359-.013-2.306 4.584c-.076.136-.095.264-.056.378.041.12.141.215.302.285l.498.204c.281.12.454.016.55-.092l.097-.151 2.587-5.161c.086-.152.128-.326.127-.517l-.003-.556c.001-.315-.181-.496-.498-.494z"/><path fill="#828E9E" d="M331.265 182.32c-.008-1.416-1.081-2.274-2.496-2.274l-.018-.046h-8.526c-1.38 0-2.264 1.291-2.15 2.629l.032.292c.054.653.359 1.245.857 1.667.226.192.481.329.756.426l.003.531c-.849.398-1.414 1.252-1.41 2.268l.002.294c.008 1.415 1.081 2.482 2.496 2.482l3.321-.018c.294-.002.57-.061.832-.15l.185.075c.302.13.647.202.993.202.691 0 1.351-.3 1.813-.822.163-.185.3-.394.408-.623l2.55-5.084c.236-.439.358-.942.355-1.457l-.003-.392z"/><path fill="#F7F8F9" d="M324.13 187.284l-.818-.036-.028-5.122c-.001-.157-.044-.28-.13-.366s-.207-.13-.361-.129l-.697.004c-.043 0-.17.005-.403.041l-1.189.167c-.305.051-.461.247-.436.548l.03.299c.013.157.067.277.16.356.093.079.22.113.381.099l1.071-.114.023 4.224-.939.047c-.305.014-.482.197-.48.5l.002.292c.002.316.184.496.5.495l3.306-.018c.168-.001.296-.051.382-.148.076-.086.114-.204.113-.352l-.002-.292c-.002-.304-.179-.484-.485-.495z"/><path fill="#F7F8F9" d="M328.764 181.673l-3.626.02c-.302.002-.484.182-.495.484l-.026.52c-.005.165.035.293.12.38.084.086.209.13.37.129l2.359-.013-2.306 4.584c-.076.136-.095.264-.056.378.041.12.141.215.302.285l.498.204c.281.12.454.016.55-.092l.097-.151 2.587-5.161c.086-.152.128-.326.127-.517l-.003-.556c.001-.315-.181-.496-.498-.494z"/><g opacity=".2"><path fill="#F7F8F9" d="M338.951 187.714c-.19-.949-.309-1.922-.377-2.908l-.025-.612-.016.216-.004.139c-.012.319-.014.637-.017.955-.002.722.017 1.483.062 2.301.069.986.187 1.959.377 2.908 1.66 8.284 4.856 10.227 13.266 9.525 5.425-.452 10.845-.973 16.606-1.494l.041-.048c.36-.434.005-1.462-.038-2.952-5.762.521-11.183 1.042-16.609 1.494-8.409.703-11.606-1.239-13.266-9.524z"/><path fill="#F7F8F9" d="M20.184 203.84c5.921.396 8.915-2.611 9.824-7.701.471-2.637.795-5.418.757-8.139h-.005c-.006-.24-.019-.54-.038-.872-.1 2.027-.366 4.059-.715 6.011-.909 5.091-3.903 8.097-9.824 7.701-6.133-.41-12.318-.03-18.481.005l-.572 1.658c.236.444.538.891.868 1.338 6.065-.044 12.151-.404 18.186-.001z"/><path fill="#F7F8F9" d="M.374 171.727c.033.313.064.273.074 1.273h.003c13.982-17 28.704-26.005 47.733-8.743 5.212 4.728 10.544 9.219 17.652 9.643 13.398.8 226.071.384 235.626-.061 5.791-.27 10.326-2.133 14.203-6.907 3.521-4.336 7.988-8.202 12.709-11.215 7.866-5.02 16.227-4.81 24.197.287 3.591 2.297 11.367 6.878 14.714 11.428l.286-.005.572-1.666-.001-.003.001-.004c-2.634-4.961-11.631-10.237-15.572-12.757-7.969-5.097-16.331-5.315-24.197-.295-4.721 3.013-9.189 6.864-12.709 11.2-3.877 4.774-8.412 6.607-14.203 6.877-9.556.445-222.229.8-235.626 0-7.108-.425-12.44-5.038-17.652-9.765-19.047-17.278-33.779-8.317-47.774 8.547-.225.271-.171.897-.088 1.6l.052.566z"/></g><polygon fill="#F7F8F9" points="145.817,90.678 145.817,90.676 145.816,90.676"/><polygon opacity=".2" fill="#F7F8F9" points="166.602,92.809 176.286,92.808 176.284,89.808 167,89.813 167,89.809 167,89.813 166.602,89.813"/></svg>